<?xml version="1.0" encoding="utf-8"?>
<!DOCTYPE svg PUBLIC "-//W3C//DTD SVG 1.1//EN" "http://www.w3.org/Graphics/SVG/1.1/DTD/svg11.dtd">
<svg version="1.1"
     xmlns="http://www.w3.org/2000/svg"
     xmlns:xlink="http://www.w3.org/1999/xlink"
     x="0px"
     y="0px"
     width="784.1px"
     height="458.6px"
     viewBox="30.767 241.591 784.077 458.627"
     id="world-map">
<title>Simple World Map</title>
<desc>
    Author: Al MacDonald
    Editor: Fritz Lekschas
    License: CC BY-SA 3.0
    ID: ISO 3166-1 or "_[a-zA-Z]" if an ISO code is not available
</desc>
<g>
    <path id="_somaliland" d="M 512.7 502.8 l 3.5 2.4 l 1 -0.1 l 8.8 -3 l 1 3.2 l -0.7 2.7 l -1.9 1.5 l -4.7 -0.3 l -6.8 -4.2 L 512.7 502.8 L 512.7 502.8 z"/>
    <path id="ae" d="M 528.5 468.1 l 0.8 3 l 8.5 0.8 l 0.6 -6.2 l 1.6 -0.9 l 0.4 -2.3 l -2.7 0.8 l -3 4.5 L 528.5 468.1 L 528.5 468.1 z"/>
    <path id="af" d="M 545.9 435.4 l 1.4 10.8 l 3.4 0.8 l 0.3 1.9 l -2.5 2 l 4.6 3.7 l 8.9 -3.2 l 0.7 -3.8 l 5.6 -3.5 l 2.1 -8.1 l 1.6 -1.7 l -1.7 -2.9 l 5.4 -3.3 l -0.7 -1 l -2.5 0.2 l -0.2 2.3 l -3.4 0 l -0.1 -3.1 l -1.1 -1.3 l -1.8 1.6 l 0.1 1.5 l -2.7 1 l -5.1 -0.3 l -6.6 6.9 L 545.9 435.4 L 545.9 435.4 z"/>
    <path id="al" d="M 450.7 420.4 v 4 l 1.1 2.2 l 0.8 -0.1 l 1.4 -2.6 l -0.8 -1.1 l -0.3 -2.8 l -1.1 -1 L 450.7 420.4 L 450.7 420.4 z"/>
    <path id="am" d="M 507.5 420.5 l 4.1 5.4 l -1.2 1.4 l -2.9 -0.5 l -3.6 -3.3 l 0.2 -2.1 L 507.5 420.5 L 507.5 420.5 z"/>
    <g id="ao">
        <path class="mainland" d="M 437.4 547.5 l 2.9 11 l -0.1 3.5 l -4.3 4.6 l -0.6 7.5 l 16.6 0.1 l 5.4 2 l 4.5 -0.6 l -2.6 -3.3 l 0 -9.3 l 5.1 -0.2 v -3.6 l -4.1 -0.2 l -0.8 -8.6 l -1.7 0 l -0.9 -0.8 l -1 0.1 l -1.4 2.6 h -5.3 l -1.2 -1.2 l 0.4 -1.7 l -1.4 -2.1 L 437.4 547.5 L 437.4 547.5 z"/>
        <path d="M 435.6 544.5 l 1.5 2 l 1.9 -1.8 l -0.6 -1.9 l -0.5 0 L 435.6 544.5 L 435.6 544.5 z"/>
    </g>
    <g id="ar">
        <path class="mainland" d="M 279.1 600.6 l 1.7 1.6 l -6.4 9.5 l -2.2 2.5 l 0.8 10.8 l 4.9 6 l -4.1 7.2 l -3.1 1.4 h -3.6 l 1 5.6 l -5.6 1.9 l 1.3 4.7 l -3.4 10.7 l 4.1 3.4 l -2.2 5.5 l -3.8 6 l 2 4.2 l -4.9 0.8 l -4 -5 l -0.7 -15.4 l -6.3 -26.2 l 1.9 -9.2 l -4 -11.7 l 2.7 -15.2 l 2.5 -2.9 l -0.6 -2.2 l 3.2 -2.9 l 7.1 0.5 l 3.9 4.2 l 4.6 0.1 l 4.7 2.9 l -1.4 3.2 l 0.3 3.3 l 6.6 -0.3 L 279.1 600.6 L 279.1 600.6 z"/>
        <path d="M 264.7 687.6 l 0.2 5 l 3.8 -0.3 l 3.2 -2.1 l -5.5 -1.1 L 264.7 687.6 L 264.7 687.6 z"/>
    </g>
    <path id="at" d="M 430.5 403.5 l -0.6 1.2 l 0.5 0.8 l 2 -0.4 h 1.7 l 1.9 1.6 l 4 -0.7 l 2.9 -1.7 l 0.7 -1.2 l -0.1 -1.5 l -2.6 -2 l -3.5 0 l -0.3 2 l -3.7 1.8 L 430.5 403.5 L 430.5 403.5 z"/>
    <g id="au">
        <path class="mainland" d="M 673 609.1 l -0.3 21.9 l -3.4 2.5 l -0.3 2.2 l 4.6 3.1 l 11.3 -2.2 h 5.8 l 2.1 -3.1 l 12.9 -2.5 l 9.2 2.8 l -0.6 3.7 l 1.2 3.7 l 7.1 -1.2 l 0.3 1.9 l -4.6 3.4 l 1.5 1.2 l 3.4 -1.2 l -0.9 10.2 l 6.4 4.9 l 3.7 -1.2 l 1.8 1.9 l 10.7 -1.5 l 10.1 -16.4 l 3.7 -0.9 l 7.4 -13.6 l 1.8 -11.7 l -4.6 -5.9 l 1.8 -1.2 l -3.7 -11.4 l -4 -2.8 l 0.6 -15.4 l -3.7 -2.8 l -0.9 -8.7 h -1.8 l -6.1 20.4 l -3.4 0.3 l -7.7 -7.7 l 4.3 -11.4 l -8 -1.5 l -8.9 2.5 l -2.5 7.1 l -4 0.9 l -0.3 -4.9 l -16.3 9.9 l 0.3 3.7 l -2.5 3.4 h -6.1 l -13.2 5.6 L 673 609.1 L 673 609.1 z"/>
        <path d="M 728.8 668.1 l -1.5 6.2 l 0.3 4.3 l 4.6 -0.3 l 5.2 -8 L 728.8 668.1 L 728.8 668.1 z"/>
    </g>
    <path id="az" d="M 508.9 418.7 l -0.9 1.5 l 4.1 5.3 l 1.4 -0.5 l 2.3 2.4 l 1 -4.3 l 2.5 0.4 l -0.1 -1.2 l -4.2 -3.6 l -0.8 2.1 L 508.9 418.7 L 508.9 418.7 z"/>
    <path id="ba" d="M 442.7 411.1 l -0.3 0.5 l 5.8 6 l 2.1 -3.1 l -0.1 -1.2 l -1.9 -2.3 L 442.7 411.1 L 442.7 411.1 z"/>
    <path id="bd" d="M 616.3 457.9 l -1.1 2 l 2.9 5.6 l 0.1 4.4 l 0.5 1.2 l 3.4 0.1 l 2 -1.9 l 1.4 0.9 l 0.3 2.7 l 1.1 -0.7 l 0.1 -3.4 l -1 -0.1 l -0.6 -2.9 l -2.4 -0.1 l -0.6 -1.6 l 1.5 -2 l 0 -1 h -4.3 L 616.3 457.9 L 616.3 457.9 z"/>
    <path id="be" d="M 414 391.7 l -0.6 1.4 l 5.9 3.9 l 0.4 0.1 l 0.4 -1.1 l 0.8 -0.6 l -1.3 -1.5 h -0.9 l -1.3 -1.4 L 414 391.7 L 414 391.7 z"/>
    <path id="bf" d="M 404.5 493.5 l 3.1 -0.3 l 5.2 7.3 l -4.8 3.6 l -3.5 -0.9 l -4.7 0.1 l -0.8 2.7 l -3.9 0.2 l -1.1 -1.5 l 1.4 -4.4 L 404.5 493.5 L 404.5 493.5 z"/>
    <path id="bg" d="M 457.1 414.1 l 0.1 4.3 l 1.5 3 l 5.5 0.1 l 2.5 -1.7 l 2.4 -1 l -0.6 -2.8 l 0.5 -1.5 l -1.2 -0.6 l -1.7 0.1 l -1.3 1.3 l -5.5 0 L 457.1 414.1 L 457.1 414.1 z"/>
    <path id="bi" d="M 478.5 538.4 l 3.7 -0.1 l -1 3.2 l -0.9 0.8 h -1.1 l -0.8 -2.2 L 478.5 538.4 L 478.5 538.4 z"/>
    <path id="bj" d="M 411.5 515.3 h 1.8 l 0.1 -5.2 l 2.3 -3.4 l -0.1 -5.9 l -2.1 -0.1 l -3.6 2.8 l 1.5 2.9 L 411.5 515.3 L 411.5 515.3 z"/>
    <path id="bn" d="M 689 515.1 l -2.5 3 l 2 0.6 l 1.1 -1.6 L 689 515.1 L 689 515.1 z"/>
    <path id="bo" d="M 238.6 561.4 l 7.1 -3.1 l 2.4 0.2 l 1.6 6.5 l 10.8 3.6 l 1.8 5.5 l 4.5 0.6 l 1.9 4.7 l -1.3 4.3 l -7.3 0.6 l -2.7 6.9 l -5.7 -0.1 l -1.8 -0.3 l -3.3 3.2 l -1.6 -0.2 l -5.6 -13 l 1.5 -2.3 l 0.5 -9.2 l -1.4 -5.5 L 238.6 561.4 L 238.6 561.4 z"/>
    <path id="br" d="M 286.6 618.5 l 5.4 -10.4 l 0.2 -8.7 l 10.1 -6.5 h 5.6 l 4.4 -7.5 l 0.8 -14.4 l -1.8 -3.9 l 10.7 -9.8 l 0.4 -10.8 l -14.5 -7.1 l -17.5 -5.5 l -8.3 -0.8 l 2.2 -4.7 l -0.6 -7.1 l -1.8 -0.6 l -2.7 5.3 l -1.4 1.8 l -3.6 -1.6 l -12.1 4.3 l -4 -5.1 l 0.6 -5.3 l -3.8 3.9 l -4.2 -2.3 l -0.4 0.6 l 0 1.8 l 3.6 1.9 l -5.4 5.7 l -3.4 0 l -3.5 -3.5 l -3.9 0.1 l -0.5 4.2 l 2.3 2.7 l -2.7 8.5 l -3.1 0.2 l -5 3.1 l -1.2 6.1 l 4.3 4.6 l 0.8 -0.9 l 3 -0.8 l 2.6 4.3 l 7.4 -3.2 l 2.9 0.2 l 2 7 l 10.5 3.3 l 1.8 5.6 l 4.5 0.5 l 2.1 5.3 l -1.4 4.7 l 1.9 2.5 l -0.3 3.7 l 5 -0.5 l 4.6 5.8 l -0.4 4.1 l 2.7 2.3 l -6.6 9.9 L 286.6 618.5 L 286.6 618.5 z"/>
    <g id="bs">
        <path d="M 222.1 463.1 l -1.1 -0.3 l -0.1 2.1 l 1.3 1.3 l 0.9 -1.3 L 222.1 463.1 L 222.1 463.1 z"/>
        <path d="M 224.3 466.4 l -1.5 0.8 l 1.4 2 l 0.8 -1 L 224.3 466.4 L 224.3 466.4 z"/>
        <path d="M 229.1 467.9 l -1.6 -0.1 l 0.2 1 l 1.2 1.7 l 1 -1.1 L 229.1 467.9 L 229.1 467.9 z"/>
        <path d="M 228.4 465.9 l -2.6 -1.1 l -0.5 -2.6 l 1 -0.4 l 1 2 l 1 0.8 L 228.4 465.9 L 228.4 465.9 z"/>
        <path d="M 225.9 460.6 l -1.3 -0.3 l -0.3 -1.7 l -1.4 -0.5 l 0.9 -0.9 l 1.7 0.6 l 1.3 0.8 L 225.9 460.6 L 225.9 460.6 z"/>
    </g>
    <path id="bt" d="M 616.1 453.6 l 1.3 1.8 l 4.5 0 l -0.5 -2.5 L 616.1 453.6 L 616.1 453.6 z"/>
    <path id="bw" d="M 454.6 594.6 l 1.9 0.6 l -0.3 5.3 l 1.9 0.3 l 4.4 -4 l 5.3 0.6 l 1.4 -3.5 l 6.7 -6.1 l -8 -9.2 l -0.1 -1.5 l -0.9 -0.3 l -2.4 2.2 l -6.3 0.2 l -0.9 7.9 l -2.5 0.6 L 454.6 594.6 L 454.6 594.6 z"/>
    <path id="by" d="M 456.4 382.9 l 1.3 2.1 l -0.5 1.7 l 0.1 1.3 l 0.5 1.6 l 2.7 -1.5 l 3.3 0.1 l 2.3 1 h 5.9 l 1.7 -4.1 l 1 -1.6 v -1 l -3.7 -5.2 l -3.3 -1.3 l -2.7 -0.3 l -2.3 0.7 l 0.1 2.4 l -3.2 4.1 L 456.4 382.9 L 456.4 382.9 z"/>
    <path id="bz" d="M 191.8 483.2 l 0 3.2 h 0.7 l 2.5 -4.6 h -1.7 L 191.8 483.2 L 191.8 483.2 z"/>
    <g id="ca">
        <path class="mainland" d="M 151.8 281.2 l 1.7 2.6 l 0.9 3.5 l 4.3 1.1 l 3 -3.3 l 2.6 1.3 l 7.3 0.6 l 5.2 -2.2 l 0.9 7.2 h 3 v -3 l 3 0.2 l 7.5 8.9 l 5 3 l -2.6 4.1 l 1.1 1.1 l 9.7 2 l 0.2 4.3 l 2.6 0.4 l 0.6 -6.5 l 4.1 -1.1 l 3 4.6 l 6.5 3 l 3.2 0.6 l 2.2 -2.6 l 0.2 -4.1 l 3.9 -2.4 l 1.3 3.5 l -3.4 6.1 l 0.4 3 l 1.9 -3 l 3.9 -3.5 l 0.2 -4.6 l -2.2 -3.5 l 0.6 -2.8 l 5.2 -2.6 l 2.4 1.7 l 0.4 15.2 l 3.7 -3.3 l 2.2 1.3 l -3 5.2 l 3.9 0.9 l 5.6 -8.7 l 4.7 5 l -1.9 8.9 l -4.7 2.6 l -4.5 -2.2 l -8.2 1.7 l 0.9 2.8 l -2.2 3.5 l -6.7 1.5 l -7.5 5.9 l -6.7 8.9 l -0.9 2.8 l 4.5 1.7 l 1.7 4.3 l 6.2 6.3 l 9.9 4.3 l -2.2 10 l -0.2 2.8 l 2.6 1.7 l 3.4 -4.6 l 0.4 -8.7 l 5.4 -0.2 l 2.6 -5 l 0.4 -7.6 l 6.9 -13.4 l 8.6 3 l 4.5 6.3 l -1.9 6.3 l 3.4 2 l 8.4 -5.6 l 2.4 15.4 l 7.8 9.3 l 0.2 4.8 l -8.6 2.2 l -4.1 4.3 l -8.6 -2 l -4.3 -0.2 l -7.5 5.9 l 4.5 -1.1 l 5.6 -1.1 l 1.1 1.3 l -1.5 4.8 l 0.2 4.3 l 2.6 1.7 l 2.6 -0.6 l 1.3 -2 h 1.7 l -2.8 5.2 l -5.4 0.2 l -2.4 3.5 h -3 l -0.9 -2.6 l 4.3 -4.3 l -5.2 1.7 l -0.2 -7.4 l -1.5 -0.9 l -4.5 2 l -0.4 3.7 h -10.3 l -8.8 6.1 l -11.8 3.9 l -1.3 -1.7 l 6 -8.9 l -3.4 -3.3 l -2.2 -4.1 l -4.4 -3.3 l -4.7 -0.4 l -8.4 -5.9 l -61.1 -10 l -1 -4.1 l -5.6 -5.2 v -4.3 l 0.9 -3.9 l -0.4 -2.2 l -2.2 -2.2 l -0.4 -3.5 l 5.6 -3.9 l -3.4 -18.7 l -4.7 -0.2 l -4.3 -5.6 L 151.8 281.2 L 151.8 281.2 z"/>
        <path d="M 130.7 350.1 l -1.5 2.8 l 0.5 2 l 1 0.6 l -0.2 0.8 l -1 0.3 l 0.3 3 l 1.1 1.1 l 0.9 -1 l -1.1 -2.9 l 0.7 -2.3 l 1.6 -2.2 l -1.2 -2 L 130.7 350.1 L 130.7 350.1 z"/>
        <path d="M 135.5 367 l -1.3 0.5 l 2.4 2.8 l 0.6 3.3 l 2.4 2.6 l 2.1 -0.4 v -3.4 l -2.5 -1.6 L 135.5 367 L 135.5 367 z"/>
        <path d="M 268.1 295.8 l -1.5 1.5 l 1.3 2.1 l 6.3 0.8 l -4 -4.3 L 268.1 295.8 L 268.1 295.8 z"/>
        <path d="M 191.1 270.1 l 0.2 3.5 l -6.9 7.1 l 1.7 5.8 l 5 -1.3 l 2.9 -4.3 l 7.3 -2.7 l 5.9 -0.4 l -4.6 -5 l -2.3 1.7 l -1.7 -0.6 l -1 -2.1 l -2.1 -2.1 L 191.1 270.1 L 191.1 270.1 z"/>
        <path d="M 200.1 259.9 l -1.5 2.7 l 7.5 2.7 l 2.7 -4.1 l 1.1 2.7 h 1.9 l 3.6 -4.1 l -4.4 -1.2 l -1.7 -1.3 l -2.3 2.3 L 200.1 259.9 L 200.1 259.9 z"/>
        <path d="M 213.1 265.3 l -5.9 2.5 v 1.9 l 7.7 2.9 l -1.7 1.9 l 1.1 2.5 l 4.8 -2.1 h 4 l 1.9 3.1 l 3.3 -3.3 l -0.8 -3.1 l -2.7 1 l -0.4 -3.9 l 1.3 -2.3 h -1.3 l -2.1 1.3 l -1 0.8 l 0.6 2.7 l -1.5 1.2 l -2.3 -0.2 l -0.6 -3.5 L 213.1 265.3 L 213.1 265.3 z"/>
        <path d="M 221 259.3 l -0.6 1.9 l 3.6 1.7 l 2.7 -1.5 l -0.2 -1.2 L 221 259.3 L 221 259.3 z"/>
        <path d="M 223.9 256 l -2.7 1 l 0.2 1.4 l 5.9 -0.4 l -0.2 -1.3 L 223.9 256 L 223.9 256 z"/>
        <path d="M 236.7 259.3 l -0.4 1.3 l -1 1.3 v 1.9 l 3.6 -0.6 l 3.8 3.3 h 1.3 v -3.3 l -3.8 -4.3 L 236.7 259.3 L 236.7 259.3 z"/>
        <path d="M 246.5 263.2 l 1.5 1.7 l -1.3 2.3 l 1 2.5 l 4.2 -2.3 v -1.7 l -2.5 -2.9 L 246.5 263.2 L 246.5 263.2 z"/>
        <path d="M 252.1 258.8 l 0.2 3.1 h 5.2 l 1.3 1.2 l -0.2 1.3 l -4.6 0.6 l 3.3 4.4 l 4.4 0.8 l 6.1 -2.7 l -8.8 -13.3 l -2.7 1.7 l 0.2 2.3 l -3.1 -1.2 L 252.1 258.8 L 252.1 258.8 z"/>
        <path d="M 207.4 280.6 l -7.3 1.9 l -4.2 3.7 l 0.4 4.1 l 7.7 2.3 l -1.7 3.9 l -5.6 -3.5 l -1.5 2.9 l 3.6 2.5 l -0.2 4.1 l 5.6 1.5 l 6.7 -0.4 l 1.1 -2.1 l 5 5.6 l 3.4 -1.2 l 0.6 -3.9 l 2.5 1.7 l 0.4 -3.9 l -3.1 -1.9 l 0.2 -12.2 l -2.7 -2.1 l -2.9 3.9 L 207.4 280.6 L 207.4 280.6 z"/>
        <path d="M 230.8 289.1 l -2.5 -1.2 l -1.3 1.7 l 2.7 4.3 l 0.2 4.1 l 5.7 -3.5 v -5 l 2.1 -2.1 l -2.1 -1.5 h -3.4 L 230.8 289.1 L 230.8 289.1 z"/>
        <path d="M 243 287.3 l -4 3.3 l 1 4.1 h 2.5 l 1.1 -2.1 l 1.7 1.7 l 1.7 -0.2 l 4.6 -3.9 L 243 287.3 L 243 287.3 z"/>
        <path d="M 242.7 281 l -1 1.9 l 4.2 1.5 l 1.1 -1.7 L 242.7 281 L 242.7 281 z"/>
        <path d="M 240.2 273.6 l -4.2 0.6 l -2.5 2.3 l 4.6 0.2 l -1.3 3.5 l 1 1.5 l 1.3 -0.2 l 3.3 -5.2 L 240.2 273.6 L 240.2 273.6 z"/>
        <path d="M 247.5 272.3 l -2.3 0.8 l 0.4 3.1 l 3.8 2.5 l 0.2 1.9 l -1.1 1.2 l 0.6 3.9 l 14.8 4.8 l 4 1.3 l 4 -3.5 l -4.8 -3.9 l -4.4 1.2 l -6.1 -0.6 l -2.3 -2.3 l -0.6 -6.4 l -3.8 -1.9 L 247.5 272.3 L 247.5 272.3 z"/>
        <path d="M 259.5 292.4 l -4.2 -0.4 l -5 1.9 l -2.7 3.7 l 0.8 10 l 8.2 0.4 l 7.9 3.9 l 5.6 6.4 l 4.2 -0.2 l -1.1 6 l -3.8 6.4 l -4.2 1.9 l -3.1 -0.6 l -1.5 -1.3 l -2.3 3.1 l 1 3.1 l 3.3 0.2 l 4 -1.9 l 3.4 8.9 l 8.6 5.6 l 5.9 -7.5 l -5 -8.1 l 2.9 -3.3 l 4 6.8 l 7.3 -6.4 l -1.3 -2.9 l -5 1.5 l -3.4 -9.5 l 3.3 -5.4 l -6.5 -6.9 l -3.6 2.5 l -3.4 -7.5 l -7.3 1 l -1.9 -9.1 l -5.9 4.1 l -0.6 5 h -3.3 l 0.4 -4.4 L 259.5 292.4 L 259.5 292.4 z"/>
        <path d="M 262 274 v 1.7 l -4.2 1 l 1.1 1.9 l 4.8 1.9 l 5.4 0.6 l 3.8 2.7 l 3.8 -2.1 l -2.7 -2.7 h 3.4 l 2.1 -2.3 l 5.2 -0.8 v -1.2 l -2.9 -1.9 l 0.4 -2.1 l 8 1.3 l 11.9 -4.6 l -4.4 -1.3 l 1.1 -1.5 h 9.2 l 1.5 -1.5 l -18.6 -6.6 l -4.4 -1.5 l -4.8 3.5 l -5.4 -4.4 l -2.9 -0.2 l -0.6 3.7 l -3.6 -3.3 l -4.2 1.3 l 0.8 2.1 l 6.3 1.4 l -0.4 3.1 l 3.4 2.1 l 8.4 -2.1 l 0.2 2.9 l -6.9 3.3 l -4.2 -3.3 l -3.8 0.4 l 3.8 5.4 l -1.9 1 l -2.9 -2.5 l -2.1 1.3 l 1.9 3.7 h 3.3 l -0.8 3.5 l -2.7 -0.4 l -3.4 -3.7 L 262 274 L 262 274 z"/>
        <path d="M 244.9 327.2 l -3.7 4.6 l -0.2 5.1 l 3.2 -1.8 h 3.9 l 2.7 2.5 l 2.5 -2.1 L 244.9 327.2 L 244.9 327.2 z"/>
        <path d="M 289.5 387 l -9.1 8.7 l 0.9 2.1 l 11.2 4.1 l 1.6 -2.8 l -0.9 -4.6 l -3.7 0.5 l -2.1 -2.3 l 3.4 -3.4 L 289.5 387 L 289.5 387 z"/>
    </g>
    <path id="cd" d="M 438 546.6 l 8.9 -0.2 l 1.8 2.6 l -0.1 1.9 l 0.7 0.6 h 4.4 l 1.3 -2.5 h 1.8 l 0.7 0.7 l 2.5 -0.1 l 0.7 8.7 l 4.3 0.1 v 0.7 l 11.5 5.2 l 0.5 1 h 2.4 l -0.3 -3.6 l -4.4 -2.1 l 0.3 -2.8 l 1.9 -4.4 l 4.3 -0.1 l -3.7 -12.2 l 0.1 -5.2 l 5.8 -9.1 l 0.1 -1.3 l -0.9 -0.5 l 0 -2.5 l -1.1 -0.1 l -1.1 -1.4 l -17.6 -0.8 l -3.2 3.1 l -5.3 -3.5 l -1.9 1.1 l -1.3 11.3 l -3.3 2.6 l -1 2.3 l 0.2 3.4 l -6 4.9 l -1.6 -0.7 l 0.2 0.9 L 438 546.6 L 438 546.6 z"/>
    <path id="cf" d="M 443.5 519.2 l 4 4.4 l 1.6 -2.1 l 2.5 0.1 l 0.5 -2 l 2.5 -1.6 l 5.2 3.6 l 3 -3 l 11.6 0.5 l -10.7 -11.1 l 1.4 -0.9 l 0.2 -2 l -2.4 -1.1 h -3.6 l -5.8 5.7 l -0.2 2.4 l -4.6 -0.1 l -0.1 1 l -3 -0.3 l -2.7 5.1 L 443.5 519.2 L 443.5 519.2 z"/>
    <path id="cg" d="M 439.4 526.6 l -0.1 1.3 l 4.1 0.1 l 0.1 10.7 l -3.8 -0.1 l -2.2 -1.7 l -1.7 1 l -0.1 0.5 l 0.9 0.4 l 0.3 2.2 l -2.3 2 l 0.5 1.1 l 2.6 -2 h 1.2 l 0.4 1.2 l 1.6 0.7 l 5.3 -4.5 l -0.1 -3.3 l 1.1 -2.7 l 3.4 -2.5 l 0.9 -8.5 l -2.4 0 l -2.8 3.8 L 439.4 526.6 L 439.4 526.6 z"/>
    <path id="ch" d="M 423.8 402.8 l -3.8 4 l 0.1 0.4 l 1.5 -0.5 l 1.4 1.9 l 2.4 -0.8 l 1.6 1.3 l 0.7 -0.4 l 2 -3.1 l -0.5 -0.5 l -2 -0.1 l -1 -2 L 423.8 402.8 L 423.8 402.8 z"/>
    <path id="ci" d="M 388.5 521.6 l 3.7 -2.6 l 4.6 -0.8 l 4.7 1 l -2.4 -3.6 l -0.7 -2.2 l 0.7 -6.5 l -4.2 0.2 l -1.9 -1.8 l -4 0.1 l -1.9 0.3 l 0.2 4.4 l -1 0.4 l -1.2 2.2 l 3.1 3.6 L 388.5 521.6 L 388.5 521.6 z"/>
    <g id="cl">
        <path d="M 261.4 683.5 l -3.7 8.1 l 6.4 0.7 l 0.1 -5.4 L 261.4 683.5 L 261.4 683.5 z"/>
        <path d="M 260.1 682.2 l -2.8 3.1 l -0.3 3.6 l -5.4 -3 l -5.7 -8.2 l -1.7 -2.9 l 2.4 -3 l -0.2 -3.8 l -2.7 -1.1 l -2.1 -1.6 l 0.4 -2.1 l 2.8 -0.8 l 0.6 -12.4 l -4.4 -2.5 l -2.8 -64.5 l 0.7 -1.3 l 5.6 12.8 l 1.8 0 l 0.6 2 l -2.4 2.9 l -2.7 15.4 l 3.9 11.9 l -1.8 9 l 6.3 26.5 l 0.7 15.5 l 4.5 5.2 L 260.1 682.2 L 260.1 682.2 z"/>
        <path d="M 241.7 649.8 l -1.1 1.7 l 0.6 2.9 l 1.1 0.1 l 0.6 -3.7 L 241.7 649.8 L 241.7 649.8 z"/>
    </g>
    <path id="cm" d="M 428 519.4 l 2.8 2.6 l -0.2 4 l 15.3 -0.4 l 1.2 -1.4 l -4.4 -4.7 l -0.6 -1.7 l 2.8 -5.2 l -1.9 -3.5 l -1.6 -0.9 v -1.8 l 1.8 -1.2 l 0.1 -5.5 l -1.5 -0.2 l 0 2.9 l -6.4 12 l -3.9 0.2 l -2.7 1.9 L 428 519.4 L 428 519.4 z"/>
    <g id="cn">
        <path class="mainland" d="M 594.5 386.1 l -3 7.5 l -4.1 -0.2 l -4.3 9.5 l 3.7 4.7 l -7.6 10.5 l -3.9 -0.7 l -2.6 3.3 l 0.6 2 l 3 0.2 l 1.5 3.5 l 3 0.7 l 9.3 12 v 6.1 l 4.6 2.8 l 5 -0.9 l 6.3 3.7 l 7.6 2.2 l 3.7 -0.4 l 4.1 -0.4 l 8.7 -5.7 l 2.8 0.4 l 1.1 2.6 l 2.4 0.7 l 3.3 4.8 l -2.2 4.8 l 1.3 3.3 l 3.7 1.3 l 0.6 3.9 l 4.3 0.4 l 0.6 -2 l 6.3 -3.3 l 3.9 0.2 l 4.6 5 l 3 -1.3 l 2 0.2 l 0.9 2.4 l 1.5 0.2 l 2.2 -3.1 l 8.7 -3.3 l 7.8 -9.4 l 2.6 -9 l -0.2 -5.9 l -3.3 -0.7 l 2 -2.2 l -0.4 -3.5 l -8.3 -8.3 v -4.2 l 2.4 -3.1 l 2.4 -1.1 l 0.2 -2.4 h -6.1 l -1.1 3.3 l -2.8 -0.7 l -3.5 -3.7 l 2.2 -5.7 l 3 -3.3 l 2.8 0.2 l -0.4 5 l 1.5 1.3 l 3.7 -3.7 l 1.3 -0.2 l -0.4 -2.8 l 3.5 -4.2 l 2.6 0.2 l 1.5 -4.8 l 1.8 -0.9 l 0.2 -3 l -1.7 -1.8 l -0.1 -4.7 l 3.3 -0.2 l -0.2 -12.2 l -2.3 1.4 L 694.3 377 l -3.9 0 l -11.3 -6.4 l -8.2 -9.8 l -8.3 -0.1 l -2.1 1.8 l 2.7 6.1 l -0.9 5.8 l -3.3 1.4 l -1.9 -0.1 l -0.1 5.7 l 2 0.4 l 3.5 -1.5 l 4.6 2.2 v 2.2 l -3.3 0.2 l -2.6 5.7 l -2.4 0.2 l -8.5 11.2 l -8.9 3.9 l -6.1 0.4 l -4.1 -2.8 l -5.9 3.1 l -6.3 -2 l -1.5 -4.2 l -10.6 -0.7 l -5.6 -9.2 h -2.4 l -1.9 -4.3 L 594.5 386.1 z"/>
        <path d="M 671.8 472.7 l -2.1 0.6 l -1.5 1.8 l 1.2 2.4 l 1.8 0.2 l 2.1 -1.8 l 0.5 -2.4 L 671.8 472.7 L 671.8 472.7 z"/>
    </g>
    <path id="co" d="M 234.3 498.3 l -1.8 -0.2 l -11.8 9.7 l -1.2 3.4 l -1.6 0.2 l 0.7 7.5 l -4.1 10.1 l 4.5 3.8 l 5.7 0.4 l 3.9 5.8 l 5.7 0.2 l -0.2 4.3 h 2.1 l 2.3 -7.9 l -2.1 -2.7 l 0.5 -5 l 4.5 -0.4 l -0.5 -11.7 l -10 -3.2 l -2.3 -6.3 L 234.3 498.3 L 234.3 498.3 z"/>
    <path id="cr" d="M 202.9 502.7 l 1.2 2.4 l 1 1.3 l -1.3 3.9 l -2.5 -1.8 l -4.1 -3.8 v -2.5 L 202.9 502.7 L 202.9 502.7 z"/>
    <path id="cu" d="M 205.9 469.8 v 1.1 l 4.6 0.1 l 2.2 -1.3 l 0.3 0.9 l 4.5 1.1 l 4 3.6 l -0.9 1.3 l 0.2 1.4 l 3.3 0.8 l 3.3 -1.5 l 1.5 -1.5 l -2.2 -1.1 l -11.2 -6.6 l -3.9 -0.4 L 205.9 469.8 L 205.9 469.8 z"/>
    <g id="cv">
        <path d="M 350 490.3 l -1.6 0.9 l 1.2 0.9 l 1.4 -0.7 L 350 490.3 L 350 490.3 z"/>
        <path d="M 354 492.2 l -1.1 1 l 0.8 1.4 l 1.8 -0.8 L 354 492.2 L 354 492.2 z"/>
        <path d="M 351.7 494.8 l -1.4 0.8 l 1.5 2 l 1.2 -0.6 L 351.7 494.8 L 351.7 494.8 z"/>
    </g>
    <path id="cy" d="M 484.6 437.8 l 1.1 0.8 l -3.3 3.1 l -1.6 -0.1 l -1.2 -0.8 l 0.2 -1.5 l 2.4 -0.2 L 484.6 437.8 L 484.6 437.8 z"/>
    <path id="cz" d="M 437.2 398.9 h 2.6 h 1.3 l 2 1.5 l 3.8 -3.2 l -3.7 -2.6 l -3.6 -1.8 l -2.5 0.5 l -3.4 2.2 L 437.2 398.9 L 437.2 398.9 z"/>
    <path id="de" d="M 422.3 384.2 l 3.1 -0.5 v -2.2 l 2.6 -0.4 l 1.4 1.4 l 1.5 0.2 l 2.3 -1 l 2.1 0.6 l 1.8 1.6 l 0.3 6 l 1.8 2.4 l -2.4 0.3 l -4 2.5 l 0.3 0.8 l 3.6 3.4 l -0.3 1.7 l -3.3 1.7 l -3.1 0.1 l -0.8 1.6 h -1.6 l -0.8 -1.7 l -2.7 -0.7 l -0.1 -2.8 l -1.4 -0.8 l 0.1 -1.9 l -0.4 -1.3 l -2 -1.8 l 0.4 -2.9 l 2.2 -1 L 422.3 384.2 L 422.3 384.2 z"/>
    <g id="dk">
        <path d="M 427.1 370.1 l -3.6 4 l -0.1 2.6 l 1.6 4.3 l 2.6 -0.5 l -0.3 -3.5 l 1.8 -2 l 0 -1.5 l -1.2 -3.2 L 427.1 370.1 L 427.1 370.1 z"/>
        <path d="M 429 377.4 l -1.1 0.2 v 1.6 l 1.1 0.9 l 1 -0.3 l -0.2 -1.5 L 429 377.4 z"/>
        <path d="M 432.3 375.8 l -0.9 0.2 l -1.1 1 l 0.4 2 l 1.3 0.5 l -1.3 0.5 l -0.3 0.7 h 2 l 0.6 -1.1 l -0.8 -0.4 l 0.3 -1 l 0.9 -1.2 l -0.3 -1 L 432.3 375.8 z"/>
    </g>
    <path id="dj" d="M 509 499.8 l -0.5 2.9 l 3.4 -0.1 l 0.1 -4.3 l -1.3 -0.8 L 509 499.8 L 509 499.8 z"/>
    <path id="dm" d="M 256.2 485.4 l -0.8 1.6 l 0.9 1.2 l 1.1 -1 L 256.2 485.4 L 256.2 485.4 z"/>
    <path id="do" d="M 242.4 481.5 l -4.6 -3 l -2.9 -1 l -0.6 5.5 l 0.6 0 l 0.8 1.5 l 1 -1.1 l 2.9 -0.8 l 2.5 0.5 L 242.4 481.5 L 242.4 481.5 z"/>
    <path id="dz" d="M 424.6 435.8 l -3.5 -1.2 l -14.7 2.8 l -3.2 2.4 l 2 10.1 l -5.8 0.2 l -3.5 5.6 l -8.4 2 l 0 4.1 l 27.5 21 l 4.7 0.4 l 15.7 -12.2 l -1.6 -2 l -2.9 -0.4 l -1.8 -3 V 453.5 l -1.2 -1.2 l 0.2 -3.2 l -3.1 -3.2 l -0.4 -3.4 l 1.4 -1 l -0.6 -3.6 L 424.6 435.8 L 424.6 435.8 z"/>
    <g id="ec">
        <path class="mainland" d="M 214 529.4 l -4.1 2.5 l -0.3 3.8 l -0.8 1.2 l 2.6 2.5 l -1.1 1.2 l 0.3 3.1 l 4.6 1.1 l 7 -8.3 l 0 -2.9 l -3.3 -0.2 L 214 529.4 L 214 529.4 z"/>
        <path d="M 183.5 531.4 l -0.5 2.4 l -1 1 l 0.7 1.2 l 1.8 -0.7 l 0.8 -1.5 l -0.5 -1.5 L 183.5 531.4 L 183.5 531.4 z"/>
    </g>
    <g id="ee">
        <path class="mainland" d="M 462.6 363.3 l -4.8 -0.2 l -3.1 1.9 l 0 1.4 l 2 1.9 l 6.2 1 L 462.6 363.3 L 462.6 363.3 z"/>
        <path d="M 452.2 364 l -1.3 0.4 l 1.3 0.2 l 0.6 0.7 l 0.7 -0.9 l -0.7 -1.2 L 452.2 364 z"/>
        <path d="M 452.8 365.8 l -1.9 0.8 l -0.6 1.1 l 0.6 0.7 l 2.4 -0.9 l 1.1 -0.8 L 452.8 365.8 z"/>
    </g>
    <path id="eg" d="M 466.2 449.2 l 2.3 0.1 l 4.5 1.2 l 2.1 0.1 l 2.6 -2.2 h 1.2 l 2.2 1.2 h 2.8 l 0.5 0 l 1.8 5.2 l 0.5 1.7 l 0.5 2.5 l -0.8 0.6 l -1.5 -0.7 l -1.7 -5.5 l -1.5 -0.1 l -0.1 1.9 l 1 3.2 l 8.1 10 l 0.2 4.3 l -2.4 2.7 l -22.2 -0.3 L 466.2 449.2 L 466.2 449.2 z"/>
    <path id="er" d="M 496.2 493.9 l -0.2 -5.1 l 3.4 -4 l 0.9 0.7 l 1.7 5.6 l 8.1 6 l -1.5 1.8 l -5.9 -5.1 L 496.2 493.9 L 496.2 493.9 z"/>
    <g id="es">
        <path class="mainland" d="M 402.6 416.3 h -11 l -2.2 -1 l -1.1 0.1 l -1.3 2.7 l 0.5 2.8 l 4.2 0.4 l 0.5 1.8 l -1.8 10.3 l 0.1 1.9 l 3 1.6 l 3.4 0.2 l 6.9 -1.7 l 3.4 -4.2 l 0.1 -4.3 l 6 -5.4 l 0.3 -2.4 l -5.4 -0.1 L 402.6 416.3 L 402.6 416.3 z"/>
        <path d="M 374.3 458.4 l -1.5 0.9 l 0.7 0.7 L 374.3 458.4 L 374.3 458.4 z"/>
        <path d="M 369 458.6 l -1.9 0.5 l 0.9 1.4 h 1.4 L 369 458.6 L 369 458.6 z"/>
        <path d="M 364.5 457.2 l -1.2 1.2 l 1.6 1.4 l 0.9 -2.1 L 364.5 457.2 L 364.5 457.2 z"/>
        <path d="M 413.6 426.9 l -1.4 0.5 l 0.3 1.2 h 2 l 0.8 -0.9 L 413.6 426.9 L 413.6 426.9 z"/>
    </g>
    <path id="et" d="M 490 508.6 l 6.3 -14 l 6.3 0 l 5.5 4.8 l -0.4 4 h 4.3 l 0.4 2.4 l 7 4.2 l 4.3 0.2 l -8.2 8.8 l -11.2 3.4 h -2.8 l -4.9 -4.2 l -2 -0.8 l -3.8 -5.6 l -2.5 0 l -0.3 -2.6 L 490 508.6 L 490 508.6 z"/>
    <path id="fi" d="M 453.1 340.2 l 1.8 0.8 l 1.1 2.1 l -1.1 1.4 l -5.5 6.1 l -1 3.2 l 1.3 4.6 l 4.3 3.2 l 5.7 -2.7 l 4.6 -0.6 l 4.3 -6.9 l -3.2 -7.5 l -3 -7.2 l 0.5 -4.6 l -1.9 -0.3 l -0.5 -3.4 l -2.6 -4.2 l -2.8 2 l -1.1 4.6 l -3 -1.8 l -4.2 -1 l -0.9 1.1 l 1.6 1.5 l 2.9 -0.1 l 2.4 3.8 L 453.1 340.2 L 453.1 340.2 z"/>
    <g id="fk">
        <path d="M 281.2 678.4 l -2.3 -0.3 l -2.3 1.5 l 1.6 1.8 L 281.2 678.4 L 281.2 678.4 z"/>
        <path d="M 283.5 677.3 l -0.8 2.4 l -2.1 1.9 l 0.1 0.6 l 3.7 -1.4 l 1.5 -1.9 L 283.5 677.3 L 283.5 677.3 z"/>
    </g>
    <g id="fr">
        <path class="mainland" d="M 413 393.6 l -1.9 0.5 l -3.8 4.2 l -1.1 0.1 l -1.5 -1.1 l -1 0.2 l -0.8 2.4 l -5.6 0.2 l 0.2 1.2 l 3.8 2.5 l 4.4 3.5 l -0.1 4.2 l -2.4 4.2 l 5.1 2.5 l 5.2 0.2 l 1.6 -1.9 l 3.3 0.1 l 0.9 0.8 l 3.3 -0.2 l 1.7 -2.2 l -2.1 -2.5 l -0.2 -1.6 l 0.5 -1.8 l -1.1 -1.5 l -1.8 0.5 l -0.2 -1.4 l 4.1 -4.5 v -2.7 l -2.3 -0.8 l -1.4 -1 L 413 393.6 L 413 393.6 z"/>
        <path d="M 276.2 517.3 l 5.1 3.2 l -2.6 5.3 l -1 1.2 l -2.8 -1.6 l 0.1 -5.7 L 276.2 517.3 L 276.2 517.3 z"/>
        <path d="M 540 586.9 l -2 0.1 l -0.1 1.7 l 1.3 0.3 l 2 -0.9 L 540 586.9 L 540 586.9 z"/>
        <path d="M 516.9 562.7 l 0.7 1.5 h 1.1 l 0.5 -1.9 L 516.9 562.7 L 516.9 562.7 z"/>
        <path d="M 258.8 489.8 l -0.9 0.8 l 0.7 1.4 l 1.3 -0.4 L 258.8 489.8 L 258.8 489.8 z"/>
        <path d="M 428 418 l -1.7 1.7 l -0.2 1.5 l 1.4 0.8 l 0.5 -0.1 l 0.3 -2.2 L 428 418 L 428 418 z"/>
        <path d="M 254.1 484.1 l -1.3 0.5 l 0.5 1.1 l 1.5 -1 l -0.3 -0.3 L 254.1 484.1 L 254.1 484.1 z"/>
    </g>
    <path id="ga" d="M 435.4 526.6 l -0.1 2.2 l -4.9 -0.1 l -3 5.8 l 7 7.7 l 1.7 -1.5 l -0.1 -1.5 l -1.2 -0.6 v -1.1 l 2.7 -1.7 l 2.4 1.8 l 2.6 0.1 l -0.1 -9.1 l -4.2 -0.2 l -0.1 -1.9 L 435.4 526.6 L 435.4 526.6 z"/>
    <g id="gb">
        <path class="mainland" d="M 400.6 368 l -1.6 2.4 l 0.6 1 h 3.6 v 1.6 l -1 1.3 l 0.6 3.4 l 2.1 4 l 1.6 3.7 l 2.5 1 l 1.1 1.9 l -0.2 1.8 l -1.6 1 l -0.2 0.8 l 1.1 0.6 l -1 1.3 l -2.2 1 l -4.3 -0.5 l -6.7 3 l -2.2 -1.1 l 6.3 -3.7 l -0.8 -0.5 l -3.3 -0.3 l 2.1 -3 l 0.3 -2.6 l 2.7 -0.3 l -0.5 -5 l -3.2 -0.2 l -0.9 -1.1 l 0.2 -3.7 l -1.9 0.2 l 1.9 -6.4 l 3.5 -2.6 L 400.6 368 L 400.6 368 z"/>
        <path d="M 394 378.7 l -2.9 0.3 l -0.2 2.6 l 1.9 1.3 l 2.1 -0.5 l 0.8 -1.4 L 394 378.7 L 394 378.7 z"/>
    </g>
    <path id="ge" d="M 495.1 415.6 l 2.8 3.7 l 3.5 1.6 l 2.2 0 l 3.7 -1 l 0.9 -1.5 l -11 -4.1 L 495.1 415.6 L 495.1 415.6 z"/>
    <path id="gh" d="M 399.1 513.2 l 1 2.3 l 2.5 4 l 1.4 -0.1 l 3.8 -2.2 l -0.3 -12.4 l -3 -0.9 l -4.1 0.1 L 399.1 513.2 L 399.1 513.2 z"/>
    <g id="gl">
        <path class="mainland" d="M 292.6 282.4 l -1.2 1.9 l 2.1 2.1 l -0.9 2.1 l 3.1 4 l 3.8 -1.2 l 4.9 -0.5 l 5.6 6.1 l 3.8 10.1 l -3.1 6.3 l 4.2 -0.7 l 2.4 1.4 l 0.2 3.1 l -5.2 0.2 l 2.8 2.8 l 3.5 0.7 l -7.8 10.3 l -0.9 6.3 l 1.6 5.2 l -1.2 3.1 l 2.1 6.6 l 4 4.5 l 1.2 -0.2 l 2.6 -0.7 l 0.2 3.8 l 1.6 2.4 l 3.1 -0.2 l 2.4 -8.7 l 7.1 -8.7 l 10.6 -4.2 l 6.6 -8.2 l 3 1.4 h 6.3 l 5.2 -5.2 l 6.3 -2.6 l 0.7 -4 l -4 -3.5 l -3.5 -1.2 l -1.9 -4.9 l 4.5 -2.6 l 7.1 3.8 l 2.4 -2.6 l -3.8 -2.1 l 8 -10.8 l -1.4 -4.7 l -3.8 -0.2 l 1.4 -4.2 l 4.7 -2.1 l 9.6 -8.5 l -2.8 -3.1 l -10.8 0.9 l -5.6 5.6 l 3.3 -7.3 l -3.8 -0.9 l -2.1 3.8 l -3.1 -2.6 l -8.5 0.9 l 2.4 -3.8 l 13.9 -0.5 l -3.5 -4.7 l -15 -2.8 l -6.1 0.9 l 0.2 3.1 l -6.3 -2.1 l 0.2 -2.1 l -4.5 0.9 l -0.9 2.4 l 4.7 1.6 l -4.9 3.5 l -3.5 -4 l -4.9 -1.4 l -0.7 3.8 h -4.9 l -1.9 -4 l -7.8 -1.2 l -4.2 2.1 l -0.2 2.8 l -5.4 -0.7 l -3.3 1.4 l 0.2 3.3 v 1.6 l -6.1 1.2 l -2.8 -1.9 l -1.9 3.1 l 2.8 3.1 l 5.9 -0.7 l 0.5 1.9 l -4.5 2.1 L 292.6 282.4 L 292.6 282.4 z"/>
        <path d="M 311.4 319.1 l 1.4 2.1 l -0.7 2.6 h -1.4 l -1.9 -2.1 l 0.5 -1.6 L 311.4 319.1 L 311.4 319.1 z"/>
        <path d="M 370.2 313.2 l 4 1.2 l -0.2 3.3 l -4.2 -2.1 l -0.9 -1.2 L 370.2 313.2 L 370.2 313.2 z"/>
    </g>
    <path id="gm" d="M 366.7 497 l -0.1 1 l 6 -0.1 l 0.3 -0.9 l -0.1 -0.9 l -1.7 0.7 L 366.7 497 L 366.7 497 z"/>
    <path id="gn" d="M 369.8 505.3 l 2.6 4 l 3.4 -3 l 3.5 -0.2 l 2.9 3.9 l 2.5 1.6 l 0.9 -1.8 l 0.8 -0.5 l -0.1 -4 l -1.6 -4.7 l -5.1 0.6 l -6.3 -0.5 l 0 1.6 L 369.8 505.3 L 369.8 505.3 z"/>
    <g id="gq">
        <path d="M 427.2 522.1 l -0.4 1.7 l 1.2 0.6 l 1.1 -0.9 l -0.4 -1.8 L 427.2 522.1 L 427.2 522.1 z"/>
        <path d="M 430.8 526.7 l -0.1 1.2 l 3.9 0.2 l -0.1 -1.4 L 430.8 526.7 L 430.8 526.7 z"/>
    </g>
    <g id="gr">
        <path class="mainland" d="M 453 427.2 l -0.1 1.1 l 4 2 l 1.9 0.7 l -1 1.1 l -2.2 0.2 l -0.3 1 l 0.8 1.7 l 2.5 1.3 l 1.1 0.1 l 0.1 -3 l 1.6 -2 l -4.5 -5.3 l 0.6 -1.8 l 1 0 l 1.6 1.3 l 1 -0.5 l 0.3 -1.8 l 3.7 0.5 l 1.1 -3.2 l -2 1.4 l -5.7 -0.1 l -3.7 1.9 L 453 427.2 L 453 427.2 z"/>
        <path d="M 461.7 438.4 l 1.4 0 l 0.6 0.9 h 2 l 1.4 -0.5 l 0.5 0.6 l -0.9 1.2 l -4 0.1 l -0.7 -1 l -0.8 -0.5 L 461.7 438.4 L 461.7 438.4 z"/>
    </g>
    <path id="gt" d="M 183.5 491.1 l 5.1 3.8 l 5.2 -6.4 l -0.9 -1.3 l -1.8 -0.1 v -3.8 l -1.3 -0.8 l -4 1.2 l 1.5 3.5 L 183.5 491.1 L 183.5 491.1 z"/>
    <path id="gw" d="M 368.2 502.4 l 1.2 2.4 l 3.4 -2.9 l 0 -0.9 l -4 -0.6 L 368.2 502.4 L 368.2 502.4 z"/>
    <path id="gy" d="M 261.4 510.7 l 6.2 5.7 l -2.5 2.9 l -0.2 1.7 l 3.3 3.4 l -0.1 3.2 l -5.7 2.2 l -3.4 -4.6 l 0.7 -5.5 l -1.5 -4.1 L 261.4 510.7 L 261.4 510.7 z"/>
    <path id="hn" d="M 194.4 488.7 l 8 -0.3 l 2.4 2.8 l -1.5 -0.3 l -2.8 0.1 l -3.7 3.5 l -1.6 3.5 l -1 -0.6 l 0 -3.9 l -2.3 -1.5 L 194.4 488.7 L 194.4 488.7 z"/>
    <path id="hr" d="M 443.4 407.8 l -3.1 2.5 h -3.1 l -0.4 2.2 l 1.4 0.4 l 0.7 -1.1 l 1.1 1 l 0.9 3.1 l 6.1 2.9 l 0.6 -0.7 l -6.2 -6.4 l 0.6 -1.2 l 5.9 -0.2 l 0.6 -1.9 l -3.8 0.1 L 443.4 407.8 L 443.4 407.8 z"/>
    <path id="ht" d="M 231.8 477.2 l 3 0.3 l -0.4 3.6 l -0.3 1.9 l -3.5 -0.2 l -0.6 0.9 l -1.1 -0.1 l -0.4 -2 l 3.7 -0.3 l -0.2 -2.1 l -1.7 -0.7 L 231.8 477.2 L 231.8 477.2 z"/>
    <path id="hu" d="M 444.4 403 l -1 1.6 l 0.1 2.4 l 1.6 0.8 l 4.9 0.1 l 6.9 -5.8 l 0 -1.3 l -0.7 -0.4 l -5 2.2 L 444.4 403 L 444.4 403 z"/>
    <g id="id">
        <path d="M 639.5 513.6 l -0.2 2 l 5.9 9.9 h 1.7 l 12.2 20.5 l 4.9 0.5 l 2.4 -7.1 l -3.9 -2.5 l -0.7 -3.9 L 639.5 513.6 L 639.5 513.6 z"/>
        <path d="M 697.5 540.9 l 2 2.4 l -1.3 3.6 v 0.7 h 2.9 l 1 -9 l 0.9 0.3 l 1.7 8.2 l 1.6 0.4 l 1.5 -3.5 l -1.5 -5.3 l -1.3 -2.3 l 4 -2.9 l -0.9 -1.3 l -3.8 2.5 h -1 l -1.9 -2.7 l 0.6 -1.2 l 3.1 -1.5 l 4.8 1.5 l 1.4 -0.1 l 3.6 -3.3 l -1.4 -1.5 l -3.3 2.6 h -2.1 l -3.2 -1.5 l -2.3 0.1 l -2.5 4.1 l -1.6 7.1 L 697.5 540.9 L 697.5 540.9 z"/>
        <path d="M 718.8 524.8 l -1.6 3.9 l 2.5 3.3 h 0.8 l 1.1 -2.2 l 0.6 -0.8 l -1.1 -1.2 l -1.6 -0.6 L 718.8 524.8 L 718.8 524.8 z"/>
        <path d="M 723.8 537.7 l -3.5 0.8 l -1 1.1 l 0.8 1.5 l 2.3 -0.9 l 1.4 -0.9 l 2.1 1.7 l 0.9 -0.8 l -1.7 -2.1 L 723.8 537.7 L 723.8 537.7 z"/>
        <path d="M 666 548.9 l -2.4 1.6 l 0.5 1.4 l 7.6 1.7 l 3.8 0.7 l 1.6 1.7 l 4.3 0.3 l 2 1.7 l 1.9 -0.4 l 1.7 -1.5 l -3.1 -1.5 l -2.7 -2.3 l -7.1 -1.7 L 666 548.9 L 666 548.9 z"/>
        <path d="M 690.8 556.3 l -1.9 1 l 1.1 1.2 l 2.7 -1 L 690.8 556.3 L 690.8 556.3 z"/>
        <path d="M 694 555.5 l 0.3 1.6 l 2 0.5 l 0.8 -0.9 l -0.8 -1.3 L 694 555.5 L 694 555.5 z"/>
        <path d="M 698.7 559.8 l -2.4 0.3 l 2.1 1.8 h 1.7 L 698.7 559.8 L 698.7 559.8 z"/>
        <path d="M 699.3 557 l -0.5 1 l 3.8 0.6 l 3 -1.7 l -1.7 -0.5 l -2.7 0.8 l -1 -0.9 L 699.3 557 L 699.3 557 z"/>
        <path d="M 711.8 557.6 l -4.4 3.7 l 0.4 0.9 l 1.9 -0.3 l 2.2 -2.1 l 4.3 -0.6 l -0.8 -1.5 L 711.8 557.6 L 711.8 557.6 z"/>
        <path d="M 734.1 532.4 l -3.6 0.4 l -2.3 1.7 l 1 1.9 l 3.9 0.7 v 0.7 l -2.5 2 l 1.2 4.2 l 1.2 0.1 l 1 -4.1 h 1.9 l 0.8 4 l 9.4 7.7 l 0.2 6.1 l 3.2 3.5 l 1.4 -0.1 l 0.3 -21.4 l -5.4 -3.8 l -5.1 3.5 l -1.8 1.1 l -3 -1.9 l -0.1 -6.1 L 734.1 532.4 L 734.1 532.4 z"/>
        <path d="M 690.7 519.5 l -2 7.5 l -10.8 3.7 l -3.2 -3.8 l -1.6 0.4 l 2.9 11.3 l 4.4 0.5 l 5.9 2.2 v 2.2 l 2.7 -0.5 l 3.9 -5.4 v -4.4 l 2.2 -4.4 l 2.4 0.5 l -2.9 -6.2 l -0.4 -4 L 690.7 519.5 L 690.7 519.5 z"/>
    </g>
    <path id="ie" d="M 394.9 383.1 l -0.8 5.2 l -7 2.6 h -2.2 l -1.6 -1.1 v -1 l 3.5 -2.2 l -1 -1.9 l 0.2 -2.7 l 3 0.2 l 1.4 -3.3 l -0.2 2.9 l 2.3 1.9 L 394.9 383.1 L 394.9 383.1 z"/>
    <path id="il" d="M 486.4 444.9 l -1.4 4.3 l 1.8 5.2 l 2 -7.6 v -1.6 L 486.4 444.9 L 486.4 444.9 z"/>
    <path id="in" d="M 595 509.7 l 4 -1.9 l 2.4 -8.5 l -0.1 -10.4 l 13.5 -14.5 v -3.4 l 2.8 -1.1 l -0.1 -4 l -3 -5.8 l 1.7 -3.1 l 3.7 3.4 l 4.8 0.2 v 1.9 l -1.5 1.6 l 0.3 0.9 l 2.6 0.1 l 0.5 2.9 h 0.8 l 1.9 -3.4 l 1 -9 l 3.2 -2.3 l 0.1 -3.1 l -1.3 -2.5 l -2 -0.1 l -8 5.3 l 0.5 3.4 l -5.6 0 l -2 -2.4 l -1.1 0.1 l 0.4 3.4 l -12.1 -0.9 l -7.5 -3.3 l -0.4 -4.1 l -5 -3.1 l -0.1 -6.4 l -3.4 -3.9 l -7.9 0.8 l 0.9 3.4 l 3.9 3.1 l -6.7 13.6 l -4.5 0.3 l -0.7 1.6 l 4.4 4.1 l -0.2 4.1 l -4.5 -0.1 l -0.5 2 l 3.7 -0.2 l 0.1 1.6 l -2.7 1.4 l 1.7 3.2 l 3.3 1.1 l 2 -1.5 l 1 -2.7 l 1.2 -0.5 l 1.4 1.4 l -0.4 3.4 l -1 1.6 l 0.2 2.8 L 595 509.7 L 595 509.7 z"/>
    <path id="iq" d="M 502.8 433.6 l -1.3 6.7 l -5.6 4.7 l 0.4 2.2 l 5.5 0.4 l 8.7 7.1 l 4.9 -0.1 l 0.1 -1.6 l 1.8 -1.9 l 2.5 1.4 l 0.3 -0.3 l -4.8 -6.4 l -2.3 -0.1 l -3 -3.9 l 0.6 -2.9 l 0.9 -0.1 l 0.3 -1.3 l -4.1 -4.3 L 502.8 433.6 L 502.8 433.6 z"/>
    <path id="ir" d="M 507.4 427.5 l -1.1 1.1 l 0.1 1.7 l 1.3 1.8 l 4.7 5.1 l -0.7 2 h -0.8 l -0.4 2 l 2.6 3.4 l 2.4 0.2 l 4.9 6.7 l 2.7 0.2 l 2.1 1.5 l 0.1 3.1 l 8.4 4.9 h 3.1 l 1.9 -1.6 l 2.4 -0.1 l 1.4 3.3 l 9.1 1.3 l 0.3 -3.3 l 3 -1.1 l 0.1 -1.2 l -2.4 -3.3 l -5.3 -4.3 l 2.8 -2.5 l -0.2 -1.1 l -3.5 -0.5 l -1.5 -11.8 l -0.2 -2.7 l -9.5 -3.6 l -4.2 1 l -2.4 2.9 l -2.1 -0.1 l -0.6 0.5 l -4.7 -0.3 l -5.9 -4.3 l -2.2 -2.4 l -1 0.2 l -1.8 2.1 L 507.4 427.5 L 507.4 427.5 z"/>
    <path id="is" d="M 366.3 340.5 l -1.7 -1 l -2.3 1.4 l -2 1.8 l 0.1 1 l 2.5 0.3 l -0.2 1.8 l -0.9 0.9 l 0.2 0.6 l 2.5 0.2 v 2.9 l 3.7 0.6 l 2.2 1.2 l 2.4 0.1 l 4.2 -2.1 l 3.2 -4.3 l 0.1 -2.9 l -2 -1.7 l -1.6 -1.4 l -0.7 0.5 l -1.1 1.4 l -1.3 -0.2 l -1.3 -1.4 l -1.6 0.2 l -2.4 2 l -1.4 1.5 l -0.8 -0.7 l -0.1 -1.7 l 0.8 -0.5 L 366.3 340.5 L 366.3 340.5 z"/>
    <g id="it">
        <path class="mainland" d="M 423.2 409.4 l -0.5 1.4 l 0.1 1.5 l 2.1 2.4 l 3.3 -0.1 l 7.2 8.3 l 4.5 1.3 l 2.6 2.5 l 0.6 5.7 l 1.4 -0.8 l 1.2 -3.1 l -0.3 -2.2 l 2.1 -0.2 l 0.3 -1.3 l -5.9 -2.8 l -5.6 -5.5 l -2.2 -3.3 l -0.5 -3.1 l 2.9 -0.7 l -0.7 -2.1 l -1.8 -1.5 l -1.5 -0.1 l -2.1 0.6 l -2 2.8 l -1.2 0.8 l -1.9 -1.1 L 423.2 409.4 L 423.2 409.4 z"/>
        <path d="M 440.7 431.9 l -1.3 -0.7 l -4.3 0.7 l 0.1 1.2 l 3.8 1.9 l 0.6 0.6 l 1 0.1 L 440.7 431.9 L 440.7 431.9 z"/>
        <path d="M 427.8 423.6 l -2.3 1.2 l 0.3 4.5 l 1.8 0.3 l 1.4 -1.3 v -4.2 L 427.8 423.6 L 427.8 423.6 z"/>
    </g>
    <path id="jm" d="M 221.5 480.8 l -3 0.8 v 0.8 l 1.8 1 h 1.8 l 1.2 -1.3 L 221.5 480.8 L 221.5 480.8 z"/>
    <path id="jo" d="M 489.5 447.3 l -2.1 7.4 l -0.1 1.1 h 3.3 l 3.7 -3.3 l 0.1 -1.3 l -1.5 -1.6 l 2.7 -2.3 l -0.4 -2.1 l -0.8 0.2 l -2.3 1.6 L 489.5 447.3 L 489.5 447.3 z"/>
    <g id="jp">
        <path d="M 709.3 426.2 l -1.4 1.4 l 0.6 2 l 1.2 0.1 l 0.8 4.3 l 1 1.1 l 1.7 -1.6 l 0.2 -4.8 l -2 -2.1 L 709.3 426.2 L 709.3 426.2 z"/>
        <path d="M 716.7 422.2 l -2.7 2.2 l -0.6 2.7 l 1.8 1.3 l 2.6 -2.8 l 0.4 -3.1 L 716.7 422.2 z"/>
        <path d="M 713.6 418 l -4.2 4.8 v 2.3 l 2.6 -0.3 l 4.1 -3.6 l 2.7 -0.5 l 0.7 0.8 l 0 2.4 l 0.7 1.3 h 1.3 l 1.8 -2.2 l 0.7 -2.8 l 3.6 -0.1 l 3.5 -4.2 l -1.8 -6.9 l -0.8 -3.7 l 1.8 -1.5 l -4.1 -6.2 l -0.9 -0.7 l -1.9 0.7 l -0.5 2.6 v 2.1 l 1 1.2 l 0.3 5.5 l -2.6 3.2 l -1.5 -0.9 l -1.2 2.6 l -0.3 2.4 l 0.9 1.4 l -0.6 1.1 l -1.9 -1.6 h -1.3 l -1.2 0.7 L 713.6 418 L 713.6 418 z"/>
        <path d="M 720.7 380.4 l -1.3 1.2 l 0.7 2.5 l 1.2 1.2 l -0.1 3.8 l -1.5 0.6 l -1.2 2.6 l 3.4 4.7 l 2.2 -0.8 l 0.4 -1.2 l -2.4 -2.2 l 1.5 -1.9 l 1.6 0.3 l 3.4 2.3 l 0.4 -2.6 l 1.6 -3 l 2.3 -2.3 l -2.5 -1.1 l -0.9 -1.8 l -1.2 0.8 l -1.1 1.3 l -2.3 -0.5 l -2.4 -1.6 L 720.7 380.4 L 720.7 380.4 z"/>
        <path d="M 733.2 377.8 l -2.3 3.3 l 0.2 1.6 l 1.2 -0.5 l 2.7 -3.4 L 733.2 377.8 L 733.2 377.8 z"/>
        <path d="M 736.3 373.1 l -0.8 2.2 l 0.1 1.5 l 1.4 -0.9 l 1.3 -2.7 v -1 L 736.3 373.1 L 736.3 373.1 z"/>
    </g>
    <path id="ke" d="M 491.1 521.4 l 2.3 4.5 l -2.8 5.8 l -0.4 1.8 l 13.8 8.5 l 4.3 -6.7 l -2.2 -1.8 l 0 -8.8 l 2.7 -3 l -4.3 1.4 l -3.3 0 l -5.1 -4.3 l -1.6 -0.7 l -3 0.3 l -0.5 0.9 L 491.1 521.4 L 491.1 521.4 z"/>
    <path id="kg" d="M 565.5 411.3 l -0.3 2.2 l 0.2 1.4 l 7.5 2.5 l -6.6 2.7 l -0.8 -0.6 l -1.4 0.9 l 0.1 0.5 l 0.8 0.3 l 4.6 0.1 l 2.4 -0.7 l 3 -3.8 l 3.8 0.7 l 4.6 -6.3 l -12.2 -1.7 l -1.7 4.1 l -2.1 -2.3 L 565.5 411.3 L 565.5 411.3 z"/>
    <path id="kh" d="M 655.1 498 l 3.5 3.8 l 6.6 -4.9 l 0.6 -7.7 l -3.4 2.3 l -1.8 -1 l -2.4 -0.3 l -1.3 -0.9 l -0.6 0 l -1.8 2.9 l 0.3 1.3 l 1.8 1 l -0.2 2.7 L 655.1 498 L 655.1 498 z"/>
    <path id="km" d="M 514.4 560 l 0.4 1.3 l 1.7 0.3 l 0.7 -1.7 L 514.4 560 L 514.4 560 z"/>
    <path id="kp" d="M 687.8 407 l 1.6 0.7 l 0.5 5.6 l 3.2 0.2 l 3 -3.5 l -1 -0.9 l 0.1 -3.7 l 2.7 -3.3 l -1.4 -2.5 l 0.9 -1 l 0.5 -2.6 l -1.6 -0.7 l -1.4 0.7 l -1.7 5.1 l -2.7 -0.2 l -3.1 3.7 L 687.8 407 L 687.8 407 z"/>
    <path id="kr" d="M 696.4 410.4 l 5.3 4.4 l 0.9 4.2 l -0.2 2.3 l -2.6 2.9 l -2.2 0.1 l -2.6 -5.5 l -1 -2.6 l 1 -0.8 l -0.2 -1.1 l -1.3 -0.6 L 696.4 410.4 L 696.4 410.4 z"/>
    <path id="kw" d="M 519.2 452.8 l -1.9 -1.1 l -1.3 1.4 l 0.1 2.7 l 3.1 1.2 L 519.2 452.8 L 519.2 452.8 z"/>
    <path id="kz" d="M 513.5 402.2 l 3.5 -1.5 l 4 -0.1 l 0.3 6.1 h -2.3 l -1.8 2.9 l 2.3 3.8 l 3.4 1.9 l 0.3 2.2 l 1.3 -0.4 l 1.2 -1.4 l 1.9 0.4 l 1 1.9 h 2.5 v -2.5 l -1.5 -4.4 l -0.7 -3.6 l 4.4 -1.9 l 5.9 1 l 3.7 3.7 l 8.3 -0.8 l 4.6 6.6 l 5.5 0.3 l 1.5 -2.5 l 1.9 -0.4 l 0.3 -2.7 l 2.9 -0.1 l 1.5 1.8 l 1.5 -3.6 l 13 1.8 l 2.2 -2.9 l -3.7 -4.5 l 4.9 -10.7 l 4 0.3 l 2.7 -6.6 l -5.5 -0.6 l -3.1 -3 l -8.6 1 l -11.1 -10.8 l -3.9 3.5 l -11.9 -5.4 l -14.6 7.1 l -0.4 5.1 l 3.4 4 l -6.7 3.8 l -8.6 -0.2 l -1.8 -2.7 l -6.8 -0.4 l -6.4 4.1 l -0.1 5.6 L 513.5 402.2 L 513.5 402.2 z"/>
    <path id="la" d="M 650.7 466.4 l -2.1 1.1 l -1.7 5.1 l 2.9 3.7 l -0.5 4.1 l 0.5 0.2 l 4.8 -2.3 l 6.5 7.2 l -0.2 4.6 l 1.4 0.8 l 3.5 -2.8 l -0.3 -2.2 l -10.1 -9.6 l 0.1 -1.5 l 1.3 -0.9 l -0.9 -2.4 l -4.2 -0.7 L 650.7 466.4 L 650.7 466.4 z"/>
    <path id="lb" d="M 487.1 440 l 0.1 1.7 l -0.7 2.6 l 2.4 0.2 l 0.2 -3.6 L 487.1 440 L 487.1 440 z"/>
    <path id="lc" d="M 258.7 493.3 l -0.6 1.3 l 1 1.1 l 1.3 -0.7 L 258.7 493.3 L 258.7 493.3 z"/>
    <path id="lk" d="M 603.3 505.4 l 0.2 2.4 l 0.2 1.7 l -1.3 0.2 l 0.6 3.8 l 1.9 1.1 l 3 -1.7 l -0.8 -4.1 l 0.2 -1.5 l -2.8 -2.6 L 603.3 505.4 L 603.3 505.4 z"/>
    <path id="lr" d="M 378.2 515 l 9.5 6.3 l -0.2 -4.8 l -2.9 -3.4 l -2.8 -2.5 L 378.2 515 L 378.2 515 z"/>
    <path id="ls" d="M 470.9 606.8 l 2.6 -2 l 1.2 0.1 l 1.5 1.9 l -0.2 1.9 l -2.5 0.9 v 0.7 l -2.8 -0.2 l -0.7 -2 L 470.9 606.8 L 470.9 606.8 z"/>
    <path id="lt" d="M 452.1 375.2 l -2.1 0.4 l 0.2 2 l 3.4 0.3 l 1.3 1 l 0.3 1.8 l 1 1.4 l 3.1 -0.1 l 2.9 -3.7 l -0.2 -2.2 l -5.5 -0.9 L 452.1 375.2 z"/>
    <path id="lu" d="M 420.4 397.6 l 0.8 0.7 l 0.9 0.1 l 0.2 -1.7 l -0.3 -1 l -1.2 0.6 L 420.4 397.6 z"/>
    <path id="lv" d="M 462.8 370 l -6.4 -1 l -1.1 2.8 l -1.8 0.5 l -1 -1.2 l -1 -1.8 l -1 0.8 l -0.6 3.1 v 1.7 l 2.2 -0.4 l 4.7 0.1 l 5.6 1 l 2.2 -0.7 l -0.1 -2.5 L 462.8 370 L 462.8 370 z"/>
    <path id="ly" d="M 430 453.5 l 1.4 -0.2 l 0.4 -3.1 h 0.7 l 2.8 -4.5 l 6.8 2 l 1.9 2.9 l 6.7 3.1 l 3.5 -1.5 l -0.3 -1.5 l -1.5 -1.5 l 0.2 -1 l 2.5 -2.1 h 4.9 l 1.9 2.5 l 3.9 0.6 l 0.5 31.9 l -2.9 -0.1 l -17.7 -9.2 l -1.9 1.1 l -7.3 -1.8 l -2 -2.6 l -2.9 -0.4 l -1.5 -2.6 L 430 453.5 L 430 453.5 z"/>
    <path id="ma" d="M 402.5 439.9 h -10 l -2 4.3 l -4.5 2.2 l -3.7 10.1 l -7.2 4.3 l -10.2 16.8 l 10 -0.2 l 0.4 -4.9 h 2.5 v -6.7 h 8.8 l 0.2 -8.7 l 8.4 -2 l 3.5 -5.7 l 5.5 -0.2 L 402.5 439.9 L 402.5 439.9 z"/>
    <path id="md" d="M 465.1 401.4 l 2.7 4.1 l -0.2 2.3 l 1 0 l 2.3 -3.8 l -2.7 -3.4 L 466.5 400 L 465.1 401.4 L 465.1 401.4 z"/>
    <path id="me" d="M 449.7 416.7 l -1.3 1.8 l 0.4 1.1 l 1.5 0.3 l 1.2 -1.6 L 449.7 416.7 z"/>
    <path id="mg" d="M 527 561.5 l -1.8 4.4 l -3.2 5.6 l -5.5 0.4 l -2.4 2.8 l 0.4 8.5 l -3.4 4 l 0.4 6.8 l 2.9 3.3 l 3.4 -0.4 l 3.4 -2.5 l -0.8 -4 l 7.9 -13.7 l -1.6 -1.7 l 1.6 -3.3 l 1.7 0.5 l 0.5 -1.3 l -1.6 -6.8 l -0.9 -2.8 L 527 561.5 L 527 561.5 z"/>
    <path id="mk" d="M 456.6 418.9 l -2.9 1 l 0.1 2.5 l 0.7 0.9 l 3.5 -1.6 L 456.6 418.9 L 456.6 418.9 z"/>
    <path id="ml" d="M 377.6 494.8 l 2.7 -1.8 l 14.8 -0.1 l -3.4 -23.8 l 3.9 -0.1 l 18.9 14.4 l 2.5 0.4 l -1 8 l -11.9 1.1 l -9.2 6.8 l -1.7 4.7 l -6.4 0.3 l -1.6 -4.7 l -4.9 0.3 l 0.2 -1.5 L 377.6 494.8 L 377.6 494.8 z"/>
    <path id="mm" d="M 645.5 501.6 l -2.4 -3.8 l 1.7 -2.4 l -1.6 -3 l -1.5 -0.3 l -0.3 -5.1 l -2.3 -4.5 l -0.7 1.1 l -1.5 2.6 l -1.9 0.3 l -1 -1.3 l -0.5 -3.4 l -1.5 -2.7 l -5.9 -5.6 l 1.5 -1 l 0.3 -4 l 2.2 -3.6 l 0.9 -9 l 3.1 -2.1 l 0.1 -3.3 l 1.9 0.6 l 3 4.3 l -2.2 4.7 l 1.5 3.7 l 3.7 1.4 l 0.7 4 l 4.9 0.8 l -1.4 2.3 l -6.2 2.4 l -0.7 4 l 4.5 5.8 l 0.2 3.1 l -1.1 1.1 l 0.1 1 l 3.4 5 l 0.1 5.2 L 645.5 501.6 L 645.5 501.6 z"/>
    <path id="mn" d="M 597.4 386.2 l 5 -6.7 l 6 2.8 l 4.1 1.1 l 5 -4.6 l -3.4 -2.5 l 2.2 -3.2 l 6.7 2.4 l 2.3 3.8 l 4.2 0.1 l 2.2 -1.6 l 4.5 -0.2 l 1 1.7 l 7.5 0.4 l 4.8 -4.8 l 6.6 0.7 l -0.4 6.6 l 2.9 0.7 l 3.5 -1.6 l 3.7 1.9 l -0.1 0.9 l -2.7 0.1 l -2.8 5.9 l -2.2 0.2 l -8.5 11.2 l -8.7 3.8 l -5.5 0.4 l -4.5 -2.9 l -5.8 3.1 l -5.7 -1.8 l -1.6 -4.1 l -10.8 -0.8 l -5.5 -9.4 l -2.7 -0.2 L 597.4 386.2 L 597.4 386.2 z"/>
    <path id="mr" d="M 365 478.3 l 1.9 2.5 l -0.4 10.7 l 2.7 -2 l 2 -0.4 l 2.7 1 l 3.1 4.3 l 2.9 -2 l 14.3 -0.2 l -3.5 -23.9 l 3.8 0 l -7.1 -5.4 l 0 3.5 l -8.9 0 l 0 6.7 l -2.6 0 l -0.3 4.9 L 365 478.3 L 365 478.3 z"/>
    <path id="mt" d="M 440.8 438.3 l -1.4 0.3 l 0.1 1.6 l 1.3 0.4 l 0.6 -0.5 L 440.8 438.3 L 440.8 438.3 z"/>
    <path id="mu" d="M 544.9 584 l -1.3 1.7 l 0.3 1.9 l 2.8 -2.3 L 544.9 584 L 544.9 584 z"/>
    <g id="mv">
        <path d="M 582.4 516.4 l 0.3 2.3 l 1.4 0.5 l 0.3 -2 L 582.4 516.4 L 582.4 516.4 z"/>
        <path d="M 584.2 521.2 l -0.1 2.8 l 1.1 0.5 l 0.9 -1.9 L 584.2 521.2 L 584.2 521.2 z"/>
        <path d="M 584.5 526.6 l -0.9 0.9 l 1.1 0.9 l 1.3 -0.9 L 584.5 526.6 L 584.5 526.6 z"/>
    </g>
    <path id="mw" d="M 488 567.1 l 2.7 2.8 l -0.1 3.6 l 0.5 1.5 l 3.6 -3.9 l -0.4 -4.9 l -1.9 -1.5 l -1.7 -8.6 l -2.9 -0.1 l 1.3 6.2 L 488 567.1 L 488 567.1 z"/>
    <path id="mx" d="M 133.8 434 l 4.2 13.1 l -1.9 1.1 l 0.2 2.6 l 3.7 2.8 v 5.2 l 4.5 4.4 l -1.9 -12.8 l -2.6 -8.5 l 0.6 -5.9 l 2.2 0.2 l 0.9 2 l -0.9 5 l 11.2 22 v 7.8 l 9.1 10.7 l 9.9 4.6 l 4.1 -2.4 l 5.8 4.8 l 3.5 -3.5 l -1.5 -3.9 l 5 -1.5 l 1.5 0.9 l 1.5 -1.5 h 2.4 l 4.3 -7.6 l -2.2 -2 l -8.4 2 l -1.9 5.7 L 182.1 480 l -5.8 -2.4 l -2.6 -8.3 l 2 -10.4 l -4 -2.5 l -1.9 -10 l -1.6 -0.7 l -2.9 3 l -3.4 -1.8 l -1.3 -6.7 l -13.3 -1.4 l -6.9 -5.2 L 133.8 434 L 133.8 434 z"/>
    <g id="my">
        <path class="mainland" d="M 648.4 511.8 l 1.7 3.9 l 0.4 5.1 l 2.3 3.6 l 5.1 3.1 l 1 -0.8 l 1.5 -0.3 l -0.2 -1.9 l -1.8 -4.5 l -2.7 -5.7 l -0.2 1 l -3.3 -0.1 l -2.3 -3.4 L 648.4 511.8 L 648.4 511.8 z"/>
        <path d="M 675.5 526.9 l 2.6 3 l 10 -3.5 l 2 -7.6 l 4.5 -0.3 l 4.1 -3 l -5.3 -3.9 l -1.2 -2.1 l -2.6 4.8 l 1 2.8 l -1.6 2.3 l -3 -0.8 l -7.3 5.3 l 0.2 3.1 L 675.5 526.9 L 675.5 526.9 z"/>
    </g>
    <path id="mz" d="M 482.8 596.4 l 2.3 1.9 l 5.5 -3.3 l 0.9 -5 v -8.2 l 8.8 -7.2 l 1.5 0.1 l 5.3 -5.1 l -0.8 -10.5 l -13.8 1.7 l 0.5 3.3 l 2 1.8 l 0.6 5.7 l -4.8 4.6 l -1.1 -2.6 l 0.2 -3.4 l -2.7 -3 l -6.7 3.1 l 6.3 3.2 l 0.2 9.3 l -4.1 6.1 L 482.8 596.4 L 482.8 596.4 z"/>
    <path id="na" d="M 444.2 603.9 l 2.9 0.2 l 1.7 1.7 l 4 0.1 l 1 -11.5 v -7.5 l 2.6 -0.5 l 1 -7.9 l 6.6 -0.2 l 2.3 -1.9 l -3.9 -0.2 l -5.3 0.7 l -5.7 -2.1 h -16.1 l 0.4 4.6 l 5.4 7.9 l -0.9 4.1 l 0.1 2.1 L 444.2 603.9 L 444.2 603.9 z"/>
    <path id="nc" d="M 798.7 602.6 l -0.3 1.5 l 4 5.6 l 2.1 0.9 l 0.3 -2.2 L 798.7 602.6 L 798.7 602.6 z"/>
    <path id="ne" d="M 413.4 500.2 l 2.2 -0.1 l 2 -3 l 3.3 -0.6 l 3.6 2.2 l 7.6 0.2 l 5.9 -2.4 l 2.2 -1.9 l 0.2 -2.5 l 4.1 -4.1 l 1.1 -9.1 l -2.7 -5.6 l -6.9 -1.7 l -15.9 12.4 l -2.3 -0.2 l -1 8.6 l -8.1 0.8 L 413.4 500.2 L 413.4 500.2 z"/>
    <path id="ng" d="M 414 515.2 l 3.4 0.2 l 4.1 4.6 l 2 0.5 l 1.6 -0.8 l 2.4 -0.3 l 0.8 -3.3 l 3.2 -2.1 l 3.5 -0.2 l 6.4 -11.8 l -0.1 -2.7 l -3 -2.3 l -5.9 2.6 l -7.9 -0.1 l -3.8 -2.4 l -2.7 0.6 l -1.4 2.4 l -0.1 6.9 l -2.3 3.2 L 414 515.2 L 414 515.2 z"/>
    <path id="ni" d="M 203.2 491.6 l 1.9 0.4 l 0.1 3.9 l -2.2 6.3 l -5.9 -0.6 l -1.3 -3 l 1.8 -3.7 l 3.3 -3.1 L 203.2 491.6 L 203.2 491.6 z"/>
    <path id="nl" d="M 421.3 384.6 l -3.9 1.9 l 0.8 0.8 l 0.1 1.9 l -0.8 -0.2 l -0.9 -1.4 l -2.2 3.5 l 3.4 0.7 l 1.3 1.3 l 0.7 0 l 0.4 -3 l 2.1 -0.9 L 421.3 384.6 L 421.3 384.6 z"/>
    <g id="no">
        <path class="mainland" d="M 460.6 327.4 l 1.7 -1.3 l -0.2 -1.4 l -1.1 -0.6 l 0.2 -1.8 h 0.9 v -1 l -4.1 -1.1 l -6.2 0.6 l -0.6 2.7 l -1.4 -0.5 l -1 -1.6 l -3 0.2 l -0.3 3 l -1.4 0.6 l -0.8 -1.6 l -6.3 5.1 l 1.3 1.4 l -2.4 1.1 l -5.4 10.7 l -1.9 1.3 l 0.2 1 l 1.9 1 l -0.5 2.1 l -3.2 -0.2 l -1 -1.1 l -2.1 2.4 l -1.3 1 l -0.3 2.2 l -1.1 0.6 l -2.9 0.6 l -1.4 4.5 l 1 7.3 l 1.1 3.4 l 1.3 1.3 l 2.9 -0.2 l 4.1 -4 l 1.6 -2.7 l 0.5 4 l 2.7 -4.8 l 0.2 -13.4 l 2.2 -1.4 l 0.7 -7.4 l 6.7 -9.6 l 3.2 -1.1 l 1.4 -1.8 l 4.8 1.1 l 2.4 1.4 l 0.8 -4 l 4 -2.4 L 460.6 327.4 L 460.6 327.4 z"/>
        <path d="M 437.1 285.8 l -1.4 -1.4 l -3.2 1.5 h -5.8 l -0.9 3.4 l 3.3 2.9 l 1.4 -0.2 l 2 -3.5 l 1.7 1.2 l -1.2 2.5 l -0.6 3.6 l 1.4 2.3 l 3.1 -5.1 l 4 -4.8 l -1.5 -1.3 L 437.1 285.8 L 437.1 285.8 z"/>
        <path d="M 438.8 279.6 l -2.5 2.4 l 1.5 2.4 h 2.7 l 1.1 1.5 l 3.4 1.7 l 3.9 -2.3 l 2.7 -2.3 l -0.9 -1.9 l -2.7 -1.5 l -1.9 1.7 l -1.3 -1.6 l -1 0.1 l -1.3 2.9 l -1.9 -2 l -0.2 -1.3 L 438.8 279.6 L 438.8 279.6 z"/>
        <path d="M 444.6 290.2 l -2 1.9 l -1.7 1.3 l 0.8 1.4 l 1.6 0.5 l 2.7 -1.2 l 1.2 -1.5 l -1.1 -1.9 L 444.6 290.2 L 444.6 290.2 z"/>
    </g>
    <path id="np" d="M 595.2 448.8 l 0.4 3.7 l 7 3.2 l 11.2 0.8 l -0.4 -2.7 l -7.5 -2.1 l -6.3 -3.8 L 595.2 448.8 L 595.2 448.8 z"/>
    <g id="nz">
        <path d="M 804.2 655.7 l 0.9 10.2 l -1.2 4.6 l -4.6 3.4 l 0.3 4 v 4.3 l 1.2 1.5 l 12.6 -10.8 v -2.5 h -3.1 l -4.3 -14.5 L 804.2 655.7 L 804.2 655.7 z"/>
        <path d="M 795 678 l 2.5 4.6 l -6.8 6.5 l -0.6 3.4 l -4.6 0.6 l -7.7 7.1 l -7.1 -3.4 l -0.6 -2.5 l 12.9 -5.6 L 795 678 L 795 678 z"/>
    </g>
    <path id="om" d="M 532.2 481.9 l 6.4 -3.7 l 1.1 -5.4 l -1.4 -0.8 l 0.6 -5.8 l 1.2 -0.7 l 1.3 2 l 7.8 4.1 v 2.3 l -9.4 13.9 l -4.3 0.1 L 532.2 481.9 L 532.2 481.9 z"/>
    <path id="pa" d="M 205.7 506.7 l -1.3 3.9 l 4.2 1.1 l 2.6 0.5 l 0.4 -3.1 l 2.8 -1.4 l 2.5 1.3 l 1 1.5 l 1.2 -0.1 l 0.9 -2.8 l -3.1 -1.3 l -2.3 -1.3 l -2.3 1.6 l -2.8 1.4 l -2.8 -1.1 L 205.7 506.7 L 205.7 506.7 z"/>
    <path id="pe" d="M 209.5 541.2 l -1.7 1.7 l 0.1 2.7 l 14.6 26.7 l 15.2 9.8 l 2.4 -3.9 l 0.6 -8.7 l -1.2 -5.4 l -4.1 -7 l -2.5 0.8 l -1.1 1.2 l -4.9 -5.6 l 1.2 -6.6 l 5.7 -3.7 l -0.4 -3.5 l -5.8 -0.2 l -3 -5.1 l -1.7 -0.6 l 0.1 3 l -7.5 8.9 l -5.6 -1.3 L 209.5 541.2 L 209.5 541.2 z"/>
    <g id="pg">
        <path class="mainland" d="M 752.1 540.2 l -0.3 21.1 l 3 -0.2 l 4 -4.7 l 3.4 0.2 l 2.2 1.9 l 0.7 6 l 6.9 3.6 l 1.8 -0.6 v -2.2 l -5.5 -4.6 l -2.7 -6.3 l 2.2 -1 l -1.6 -3.5 l -3.2 -0.1 l -0.8 -3.7 l -8.5 -5.7 L 752.1 540.2 L 752.1 540.2 z"/>
        <path d="M 778.2 546 l -0.8 0.2 l -0.5 2.2 l -1.6 1 l -4.7 0.8 l 0.2 1.8 l 5 -0.2 l 3.2 -2 l -0.2 -3.4 L 778.2 546 L 778.2 546 z"/>
        <path d="M 776.1 540.8 l -0.8 1.1 l 4.2 3.7 l 0.6 2.2 l 1.1 -0.1 l 0.1 -2.2 l -1.3 -1.1 L 776.1 540.8 L 776.1 540.8 z"/>
    </g>
    <g id="ph">
        <path d="M 697.3 496.3 l -0.7 1.4 l -0.4 1.7 l -4.1 5.2 l 0.3 1.1 l 1.7 -0.3 l 5.4 -6 L 697.3 496.3 L 697.3 496.3 z"/>
        <path d="M 704 494.3 l -0.1 4.3 l 1.6 1.6 l 0.6 3.1 l 1.6 0.3 l 0.7 -1.9 l -1.2 -0.9 l -0.3 -5.4 L 704 494.3 L 704 494.3 z"/>
        <path d="M 708.5 496 l -0.1 3.8 l 0.9 1.5 l 1.6 -1.8 l -0.4 -3.3 L 708.5 496 L 708.5 496 z"/>
        <path d="M 709.5 492.6 l 1.6 2.1 l 0.7 2 h 1.4 l -0.3 -3.4 l -1.6 -1.1 L 709.5 492.6 L 709.5 492.6 z"/>
        <path d="M 712.5 500.5 l 0.3 2.5 l -2.9 2.3 l -2.4 0.3 l -2.6 2.7 l 0.1 1.3 l 2.4 -0.8 l 1.7 -1.1 l 1.4 3.6 l 2.5 1.7 l 1 -0.3 l 0.9 -1.1 l -2 -2 l 1.2 -0.9 l 1.3 1.1 l 0.9 -1.5 l -0.9 -1.8 l -0.2 -4.1 L 712.5 500.5 L 712.5 500.5 z"/>
        <path d="M 699.1 475.1 l -2.2 1.6 l -0.3 5 l 3.5 6.7 l 1.2 0.9 l 1.5 -1 l 2.6 0.4 l 0.5 2.2 l 1.9 0.2 l 0.9 -1.2 l -1.2 -1.6 l -1.4 -1.3 l -3 -0.3 l -1.6 -2.6 l 1.8 -2.7 l 0.2 -2.4 l -1.2 -3.1 L 699.1 475.1 L 699.1 475.1 z"/>
        <path d="M 700.2 490 l 0.7 2.3 l 1.2 0.8 l 0.8 -1.1 l -1.3 -1.8 L 700.2 490 L 700.2 490 z"/>
    </g>
    <path id="pk" d="M 553.6 455.1 l 2.2 3.3 l -0.2 1.7 l -3 1.2 l -0.2 2.8 h 3.4 l 1.2 -1 h 6.5 l 5.9 5.2 l 0.8 -2.5 h 4.4 l 0.1 -3.1 l -4.5 -4.3 l 1 -2.4 l 4.6 -0.3 l 6.2 -12.9 l -3.4 -2.7 l -1.3 -4.5 l 8.3 -0.8 l -4.9 -7 l -2.6 -0.7 l -1.1 1.3 l -0.8 0.1 l -4.9 3.1 l 1.6 2.7 l -1.8 1.9 l -2.2 8.3 l -5.6 3.6 l -0.8 3.9 L 553.6 455.1 L 553.6 455.1 z"/>
    <path id="pl" d="M 457.1 390.2 l 0.7 1.3 l 0.2 1.4 l -0.6 1.4 l -1.4 2.7 l -1.2 0.5 l -1.5 -0.7 l -0.9 0 l -2.2 0.8 l -2.5 -0.7 l -4.1 -2.9 l -4 -2.1 l -1.6 -2.4 l -0.3 -5.8 l 3.1 -2.7 l 4.1 -1.4 l 1.3 -0.1 l 0.3 1 l 1.7 0.7 l 4.8 0.1 l 1.5 0 l 2.4 3.7 l -0.6 1.5 l 0.3 1.8 L 457.1 390.2 L 457.1 390.2 z"/>
    <path id="pr" d="M 249.3 482.1 l -2.3 -0.8 l -1.8 1.1 l 0.9 1.1 l 3.1 0.5 L 249.3 482.1 L 249.3 482.1 z"/>
    <g id="pt">
        <path class="mainland" d="M 387.5 421.7 l -0.5 7.5 l -1.5 1.4 l 0.2 0.8 l 1.1 1.8 l -0.7 2.2 l 1.1 0.4 l 2.7 -0.3 l -0.2 -2.2 l 1.8 -10 l -0.4 -1.4 L 387.5 421.7 L 387.5 421.7 z"/>
        <path d="M 367.8 443.5 l -0.9 1.2 l 0.9 1.2 l 1.4 -0.7 L 367.8 443.5 L 367.8 443.5 z"/>
        <path d="M 337.1 426.7 l -1.2 1.2 l 2.1 1.2 l 0.2 -1.6 L 337.1 426.7 L 337.1 426.7 z"/>
        <path d="M 343.4 426 l -1.4 0.9 l 1.2 0.9 l 1.9 -0.5 L 343.4 426 L 343.4 426 z"/>
        <path d="M 344.4 429.3 l -0.7 1.9 l 0.9 1.2 l 1.2 -0.9 L 344.4 429.3 L 344.4 429.3 z"/>
        <path d="M 350 433.1 l -0.5 1.2 l 0.7 0.7 l 1.9 -1.2 L 350 433.1 L 350 433.1 z"/>
    </g>
    <path id="py" d="M 267.2 584.5 l 1.9 2.1 l -0.2 4.4 l 5.5 -0.3 l 4.1 5.3 l -0.3 4.7 l -2.7 4.1 L 270 604.9 l -0.2 -2.3 l 1.6 -3.7 l -5.4 -3.4 h -4.5 l -3.4 -3.6 l 2.4 -7 L 267.2 584.5 L 267.2 584.5 z"/>
    <path id="qa" d="M 527.3 463 l -0.4 3.5 l 1.3 1 l 1.2 -0.1 l 0.5 -4.4 l -1 -0.8 L 527.3 463 L 527.3 463 z"/>
    <path id="ro" d="M 457.7 401.3 l -0.2 1.3 l -5 4.2 l 4.2 6.1 l 2.7 1.9 h 4.8 l 1.6 -1.3 l 2.1 -0.3 l 1.6 1 l 2.8 -3.2 l -0.5 -1.6 l -2.9 -0.7 l -2 -0.1 l 0.1 -2.7 l -2.6 -4.1 L 457.7 401.3 L 457.7 401.3 z"/>
    <path id="rs" d="M 452 407.3 l -1.8 1.3 h -0.9 l -0.6 1.8 l 2.1 2.4 l 0.1 1.9 l -0.9 1.2 l 3.1 3.2 l 3.3 -1 l -0.3 -4.7 L 452 407.3 L 452 407.3 z"/>
    <g id="ru">
        <path class="mainland" d="M 722.1 302.2 l 1.5 5.3 l 3 0.9 l 3 -4.8 l -1.7 -3.3 l 0.6 -2.8 h 4.6 l -1.1 2.2 l 0.4 7.9 l -6.5 16.2 l 0.6 3.5 l -0.2 5.9 l 12.2 17.7 l 2.4 0.7 l 0.2 -14.4 l 2.4 -2.2 l -2.6 -5.7 l 2.2 -2.4 l -4.8 -6.3 l -2.6 0.2 l -0.9 -10.5 l 6.7 -1.8 l 0.4 -3.1 l 3.5 -0.9 l 2 1.8 l 2.4 -9.6 l 4.1 -7 l 3.3 -1.8 l 2.8 0.2 v -3.3 l -4.6 -0.9 l -6.3 -5.3 l 3 -3.5 l -2.6 -5.9 l 2.2 -2.2 l 2.6 3.5 l 6.5 2.4 l 7.2 0.7 l 0.9 -3.1 l -3.7 -3.7 l 4.1 -5.7 l -9.3 -3.3 l -2.4 4.8 l -3 -3.9 l -17.2 -5.9 l -16.3 2.8 l -2.4 1.3 v 1.3 l 3.5 1.8 l -0.4 4.2 l -6.3 -2.6 l -13.9 5.5 l -2.4 -5 h -9.6 l -4.3 4.6 l -15.4 -3.5 l -14.1 2.8 l -1.7 4.4 l 2.2 0.7 l -0.2 3.3 l -13.7 1.5 l 0.9 4.4 l -12.6 -2.2 l 3 -5.7 l -12.8 -0.7 l 1.1 5.9 l -4.1 2 l -3.5 -3.3 l -14.1 2.4 l -5.4 5 l -0.2 3.1 l -3.5 0.2 l -0.4 -3.5 l 11.1 -9.6 v -6.6 l -7.2 -2 l -9.3 3.1 l -3.9 -3.9 h -1.7 l -2.2 4.4 l 1.7 2 l -12.4 6.8 l -10.6 8.1 l -6.5 9 v 3.7 l 6.9 2.8 l -3.5 2.6 l -7.4 -2.6 l -3 2.6 l -4.6 -5.3 l -0.9 2 l 5 15.8 l 1.3 0.4 l 3.5 -1.8 l 1.7 1.3 v 2.8 l -3.3 -1.3 l -2 1.5 l 1.3 2.8 l -1.1 7.4 l -6.7 0.7 l -0.4 -2.4 l 3.9 -2.4 l 0.9 -6.6 l -4.3 -5.7 l -1.5 -9.8 l -6.9 -1.1 l -0.6 3.5 l 1.3 1.8 l -2.8 2.4 l 1.1 6.6 l 4.1 1.8 l 0.9 4.8 l -4.1 -2.6 l -10.6 -2 l -1.3 3.5 l -8.5 3.1 l -1.3 -2.2 l -11.1 6.1 l -0.2 4.2 l -4.3 0.7 l 1.3 -3.1 v -3.1 l -4.3 -1.5 l -2.8 1.1 l 2.4 4.6 l 1.7 3.1 v 2.4 l -3.3 -0.7 l -0.6 -0.7 l -3.3 3.5 l 1.7 3.1 l -7.4 -0.2 l 2.4 3.1 l -0.6 1.3 h -3.9 l -2.8 -2 l -0.6 -5.5 l -4.6 -1.8 v -2.2 l 9.6 2 l 5.2 0.4 l 2.2 -3.3 l -2 -3.5 l -13.9 -5.5 l -4.8 1.2 l -1.6 1.4 l 0.5 3.2 l 2 0.4 l -0.5 5.1 l 6.3 14.8 l -4.5 7.2 l -0.3 1.6 l 2.3 1.6 l -2.1 1.4 l -1.4 0 l 0.3 6.4 l 1.9 2.7 l 0 2.6 l 2.4 0.2 l 3.7 1.4 l 4 5.4 l 0 1.4 l -1.3 2.2 l 3 -0.2 l 2.9 0.8 l 3.9 5.5 l 9.6 0.9 l -0.4 6.6 l -3.3 2.8 l 0.7 1.1 l -3.3 3.5 l -0.9 3.3 l 2 2.8 l 6.3 2.2 l 2.6 -1.5 l 16.7 6.3 l 0.6 -1.8 l -3.5 -3.3 v -4.2 l -2.2 -0.7 l 0.4 -3.5 l 3.5 -4.2 l -6.2 -4.7 l 0.4 -6.5 l 6.7 -4.4 l 7.8 0.4 l 1.3 2.4 l 8 0.4 l 5.9 -3.3 l -3 -3.3 l 0.6 -6.1 l 15.2 -7.4 l 11.7 5.3 l 3.9 -3.5 l 11.5 10.9 l 8.7 -0.9 l 3 3.1 l 8.3 0.9 l 5.4 -7.4 l 6.9 3.1 l 3.7 0.7 l 3.7 -3.3 l -3.3 -2.2 l 2.8 -4.4 l 8 2.6 l 1.7 3.5 l 3.5 0.2 l 2.2 -1.5 l 5.9 -0.2 l 0.6 1.5 l 6.7 0.4 l 4.6 -4.8 l 9.3 1.1 l 2.8 -1.1 l 0.9 -5.3 l -2.8 -6.3 l 2.8 -2.4 h 8.9 l 8.5 10.1 l 10.9 6.1 h 3.3 l 0.4 -2.6 l 3.9 -2.4 l 0.4 14.2 l -3.5 0.2 v 3.5 l 2 2.4 l -0.4 3.1 l 1.4 0.6 l 0.9 -2.2 l 1.3 0.4 l 0.9 0.9 l 3.9 -0.9 l 3.9 -11.4 l 0.4 -14.2 l -5 -11.4 l -6.3 -7.7 l -3 0.4 v 2.4 l -7.4 -2.8 l 2.8 -6.1 l 2.4 -16.2 l 10 -3.1 l 4.8 -3.1 h 5.2 l -1.3 1.8 l 1.3 2.2 l 4.6 -4.8 l 2.6 0.2 l -0.4 -2.8 l -4.1 -0.9 l 2.8 -10.3 L 722.1 302.2 L 722.1 302.2 z"/>
        <path d="M 450.1 378.3 l -1.3 2.4 l 4.7 0 h 0.9 l -0.2 -1.4 l -0.7 -0.9 L 450.1 378.3 z"/>
        <path d="M 741.1 353.2 l -1.1 1.3 l 0.1 2.1 l 1 -0.1 l 1.7 -2.9 L 741.1 353.2 L 741.1 353.2 z"/>
        <path d="M 776.8 272.3 l -2 1.3 l -0.5 1.7 l 1 1.1 l 2.2 -0.7 l 2.2 0.7 l 1.2 0.4 l -0.1 -4 L 776.8 272.3 L 776.8 272.3 z"/>
        <path d="M 488.5 272.6 l 1.5 0.6 l -1 1.8 v 2.5 l -2.2 1.4 h -2.4 l -1.3 -1.7 l 0.1 -1.8 l 1 -1.4 h 2.1 L 488.5 272.6 L 488.5 272.6 z"/>
        <path d="M 494.2 271 v 1.8 l 1.5 1.2 l 2.1 -0.1 l 1.8 -1.7 v -1.2 h -1.6 l -1.3 0.4 l -1 -1.2 L 494.2 271 L 494.2 271 z"/>
        <path d="M 502.7 271.2 l 1 2.2 l 2.1 0.1 l 1.5 -0.6 l -0.7 -2.1 l -1.9 -0.5 L 502.7 271.2 L 502.7 271.2 z"/>
        <path d="M 511.2 268.2 l -1.6 -0.3 l -1.5 1.5 l 0.7 1.3 l 0.4 2.1 l 1.9 -1.5 l 0.4 -1.6 L 511.2 268.2 L 511.2 268.2 z"/>
        <path d="M 520.2 284.1 l -0.5 2.1 l -3.4 3 l -7.3 1.7 l -6 9.9 l -1 2.9 l 6 1.5 l 0.9 -3.6 l 1.8 -5.5 l 4.6 -2.4 l 3.9 -3 l 2.8 -1.2 h 1.5 v -4 L 520.2 284.1 L 520.2 284.1 z"/>
        <path d="M 501 305.9 l 4 0.5 l 1.3 4.6 l 3.4 3.6 l -1.2 2.4 h -2.1 l -1.9 -2.2 l -4.3 -0.1 l -1.8 -2.4 v -1.7 l 2.7 -0.8 L 501 305.9 L 501 305.9 z"/>
        <path d="M 563.9 254.8 l -1.9 -1.2 h -2.2 l -0.4 1.4 l -2.4 1.4 l -1.8 0.6 l -0.3 1.8 l 4.2 0.3 L 563.9 254.8 L 563.9 254.8 z"/>
        <path d="M 568.5 255.3 l -1 2.2 l -2.1 -0.1 l -3.3 2.4 l -0.9 3 h 2.1 l 1.2 -2 l 2.8 2.1 l 2.7 -1.2 l 1.9 -1.6 l -0.7 -2.6 l -1 -1.8 L 568.5 255.3 L 568.5 255.3 z"/>
        <path d="M 572.8 256.9 l 1 4.2 l 1.6 3.9 l 1.8 -3.1 l 3.4 -0.8 v -2.2 l -2.2 -1.7 L 572.8 256.9 L 572.8 256.9 z"/>
        <path d="M 654.5 250.2 l 2.3 2 l 1.6 -0.7 l 0.5 -2.7 l -3.4 -2.3 l -2.2 1.5 l -5.4 0.5 v 2.4 l -5.7 0.1 v 4 l 6.7 5 l 1.7 -1.3 l -0.4 -3.5 l 4.3 -1.1 l -0.9 -1.7 l -1.5 -1.6 L 654.5 250.2 L 654.5 250.2 z"/>
        <path d="M 660.7 247.8 l 1.5 2.9 l 6 -0.7 l 1.6 -2.2 l -0.4 -1.9 l -1.6 -0.7 l -1.5 1.2 l -4.5 1 L 660.7 247.8 L 660.7 247.8 z"/>
        <path d="M 660.3 259.3 l -3 -0.8 l -1.7 1.9 l -0.8 2.5 l 4.1 -0.4 l 3.1 -1.6 L 660.3 259.3 L 660.3 259.3 z"/>
        <path d="M 738.2 242.4 l -2.5 -0.8 l -2.9 1.1 l -1.5 2.2 l 1.8 2.4 l 4.8 -2.2 l 1 -1.1 L 738.2 242.4 L 738.2 242.4 z"/>
        <path d="M 739.2 358.3 v 3.7 l 1.2 0.4 l 0.8 -1.3 v -2.8 L 739.2 358.3 L 739.2 358.3 z"/>
        <path d="M 705.4 345.1 l -0.1 5.3 l 6.7 10.3 l 2.4 9 l 4.2 8 l 1.6 0.6 l 1.4 -1.2 l 0.7 -1.9 l -6 -6.6 l 0.2 -3.4 l 1.3 -0.6 l 0.3 -2 l -11.8 -16.7 L 705.4 345.1 L 705.4 345.1 z"/>
        <path d="M 752 328.5 l -1.6 0.2 l 1 1.4 l 2.1 1.4 l 0.6 -0.7 L 752 328.5 L 752 328.5 z"/>
        <path d="M 755.2 329.5 l 0.3 1.4 l 2.6 0.8 l 0.3 -1 L 755.2 329.5 L 755.2 329.5 z"/>
        <path d="M 769.2 335 l 1.1 1.9 l 1.8 -0.1 l 0.4 -1.3 L 769.2 335 L 769.2 335 z"/>
        <path d="M 787.4 338 l 1.4 2.7 l 1.1 -1.2 v -1.8 L 787.4 338 L 787.4 338 z"/>
    </g>
    <path id="rw" d="M 479.9 532.9 l 2.4 2.2 l -0.1 2.4 l -3.8 0.1 v -2.6 L 479.9 532.9 L 479.9 532.9 z"/>
    <path id="sa" d="M 519.8 458 l 6.1 8.4 l 2 1.6 l 0.9 3.8 l 9.3 0.7 l 1.1 0.6 l -1 4.7 l -6.1 3.6 l -9 2.7 l -4.8 4.7 l -5.7 -3.3 l -3.4 3 l -4.8 -7.8 l -3.3 -1.5 l -1.2 -1.8 v -3.9 l -12 -14.5 l -0.5 -2.6 h 3.4 l 4.2 -3.6 l 0.1 -1.8 l -1.2 -1.2 l 2.4 -2 l 5.1 0.3 l 8.7 7.2 l 5.1 -0.2 l 0.3 1.3 L 519.8 458 L 519.8 458 z"/>
    <g id="sb">
        <path d="M 783.8 549.9 l 1.1 3 l 1.9 1.8 l 0.6 -0.5 l -0.2 -2 l -2.1 -2.6 L 783.8 549.9 L 783.8 549.9 z"/>
        <path d="M 789 554.3 l 0.1 2 l 1.2 1.1 l 1.1 -0.7 l -1 -2.1 L 789 554.3 L 789 554.3 z"/>
        <path d="M 790.5 559.2 l -1 1.1 l 1.1 2 l 1.3 0.4 l -0.1 -1.3 L 790.5 559.2 L 790.5 559.2 z"/>
        <path d="M 793 558.1 l 0.9 2.2 l 1.7 2 l 0.9 -1.5 l -1.3 -2.2 L 793 558.1 L 793 558.1 z"/>
        <path d="M 797.4 561.3 l 0.5 2.7 l 1.2 1.6 l 1 -2.1 L 797.4 561.3 L 797.4 561.3 z"/>
        <path d="M 798.8 567.3 l -0.4 0.8 l 1.5 1.9 l 1 0.1 l -0.6 -2.5 L 798.8 567.3 L 798.8 567.3 z"/>
        <path d="M 795.6 571.1 l -1.5 0.7 l 1.3 1.8 l 1.1 -0.6 L 795.6 571.1 L 795.6 571.1 z"/>
    </g>
    <g id="sc">
        <path d="M 535.7 548.9 l -0.5 1.1 l 1.4 1.2 l 1.1 -1.2 L 535.7 548.9 L 535.7 548.9 z"/>
        <path d="M 543 540.9 l -1.6 1.1 l 1.2 1.9 h 1.6 L 543 540.9 L 543 540.9 z"/>
        <path d="M 543.7 545.6 l -1.1 1.2 l 0.8 1.2 l 1.4 0.3 l 0.1 -2.5 L 543.7 545.6 L 543.7 545.6 z"/>
    </g>
    <path id="sd" d="M 466.1 505 l -2.5 -1.5 l -2.3 -4.6 l 0.1 -4.3 l 3.2 -2.8 l 0 0 l 0.2 -10.2 l 2.1 0.1 l -0.2 -5.7 l 22.3 0.2 l 3.2 -3.2 l 6.9 11 l -3.8 4.4 v 6.8 l -4.6 9.9 l -1 2.3 l -3.7 -5.3 l -2.7 3.4 l -3.1 0.8 l -9.9 -1 l -4.3 1.5 L 466.1 505 z"/>
    <g id="se">
        <path class="mainland" d="M 445.2 329.5 l 1.7 1.6 h 3.2 l 1.7 3.4 l 0.5 5.7 l -4.3 3 v 3 l -3 4.2 l -1.7 0.2 l -2.4 4 l 0.2 3.8 l 4.1 3 l -0.3 1.8 l -1.6 2.4 l -2.4 2.1 l 0.2 6.9 l -3.6 1.3 l -1.3 2.7 h -1.7 l -0.9 -4.8 l -4 -6.1 l 3.3 -5.5 l 0.2 -13.5 l 2.2 -1.2 l 0.5 -7.7 l 6.4 -9.2 L 445.2 329.5 L 445.2 329.5 z"/>
        <path d="M 445.9 368.9 l -1.8 1.4 l 0.9 2.1 l 1.6 -1.6 L 445.9 368.9 L 445.9 368.9 z"/>
    </g>
    <path id="sg" d="M 658.3 527.7 l 0.7 0.4 l 1.5 -0.1 l -0.1 -1.2 L 659.2 527 L 658.3 527.7 z"/>
    <path id="si" d="M 442.7 405.1 l -2.2 1.3 l -4.1 0.9 l 0.8 2.4 l 2.9 0 l 2.6 -2.2 L 442.7 405.1 L 442.7 405.1 z"/>
    <path id="sk" d="M 443.6 400.9 l 0.6 0.5 l 0.1 0.9 l 6.6 -0.1 l 4.9 -2.1 l -0.1 -2.1 l -0.9 0.4 l -1.3 -0.7 l -0.8 0 l -2.2 0.9 l -2.9 -0.7 L 443.6 400.9 L 443.6 400.9 z"/>
    <path id="sl" d="M 372.8 509.8 l 4.9 4.7 l 3.5 -4.2 l -2.2 -3.4 l -3 0.3 L 372.8 509.8 L 372.8 509.8 z"/>
    <path id="sn" d="M 372.4 498.8 l -5.8 -0.1 l 0 0 l 1.1 2.6 l 0.6 -1.6 l 7.3 0.8 l 0.8 0 l 3.4 0.1 l 0.1 -1.5 l -3.1 -3.7 l -3.5 -4.7 l -2.2 -0.9 l -1.7 0.4 l 0 0 l -3.4 2.5 l -0.8 1.4 l -0.2 1.4 l 1.3 0.9 l 4.2 -0.1 l 2.7 -0.7 l 0.3 1.3 l -0.2 1.7 L 372.4 498.8 z"/>
    <path id="so" d="M 526.7 501.9 l 3.8 -1.5 l 1.3 0.8 l -0.1 3.4 l -3.5 9.9 l -18.9 20.2 l -2.2 -1.5 l -0.1 -8.5 l 2.8 -3.3 l 6 -1.9 l 8.8 -9.3 l 2.3 -2.1 l 0.6 -3 L 526.7 501.9 L 526.7 501.9 z"/>
    <path id="sr" d="M 268.4 516.7 l 1.8 1.6 l 2.7 -1.7 l 2.5 0.1 l -0.3 1 l -1 2.2 l -0.2 5.4 l -5 2 l 0.2 -3.5 l -3.2 -3 l 0.2 -1.5 L 268.4 516.7 L 268.4 516.7 z"/>
    <path id="ss" d="M 489.3 508 l -2 0.9 l 0.6 3.6 h 2.5 l 3.4 5 l -2.8 0.4 l -0.7 1.3 l -0.1 1.9 l -8.3 -0.1 l -0.8 -1.3 l -5.8 -0.3 l -10.6 -11 l 1.1 -0.6 l 4.5 -1.4 l 9.9 0.8 l 3.4 -0.8 l 2.2 -3 L 489.3 508 z"/>
    <g id="st">
        <path d="M 421.9 530.6 l 1 -0.5 l 0.7 0.6 l -0.7 1.1 l -0.9 -0.4 L 421.9 530.6 L 421.9 530.6 z"/>
        <path d="M 423.9 527.4 l 1.5 -0.3 l 0.5 1 l -0.7 0.8 l -0.7 -0.1 L 423.9 527.4 L 423.9 527.4 z"/>
    </g>
    <path id="sv" d="M 189.3 495.2 l 4.1 2 l -0.1 -3.2 l -2.1 -1.3 L 189.3 495.2 L 189.3 495.2 z"/>
    <path id="sy" d="M 487.5 437.2 l -0.3 2.2 l 2.4 1 l -0.1 6.1 l 2.4 -0.1 l 2.4 -1.8 l 0.9 -0.2 l 5.5 -4.4 l 1.1 -6.4 l -11.1 1.1 l -1.2 2.6 L 487.5 437.2 L 487.5 437.2 z"/>
    <path id="sz" d="M 482.5 597 l -2.2 0.4 l -0.9 2.6 l 1.7 1.5 h 2 l 1.7 -2.4 L 482.5 597 L 482.5 597 z"/>
    <path id="td" d="M 441 495 l 0.1 -2.6 l 4.1 -4 l 1.1 -9.8 l -2.7 -5.2 l 1.9 -1 l 18.5 9.6 l -0.1 9.5 l -3.3 2.8 v 4.9 l 2.1 4.1 h -3.8 l -6.2 6.2 l -0.2 1.9 l -4.6 -0.1 l -0.1 0.8 l -2.6 -0.3 l -1.8 -3.4 l -1.4 -0.7 l 0.2 -1 l 1.7 -1.3 v -6.1 l -2.3 -0.4 l -2.8 -2.1 L 441 495 L 441 495 L 441 495 z"/>
    <path id="tg" d="M 408.5 516.8 l 2.3 -1.4 l -0.1 -8.9 l -1.5 -2.4 l -1 0.8 L 408.5 516.8 L 408.5 516.8 z"/>
    <path id="th" d="M 646 472.9 l 2.8 3.6 v 4.4 l 1 0.5 l 4.5 -2.1 l 0.9 0.3 l 5.3 6.1 l -0.2 4.2 l -1.7 -0.3 l -1.5 -1 l -1.2 0.1 l -2 3.4 l 0.4 1.9 l 1.6 0.9 l -0.1 2 l -1.2 0.6 l -4 -2.7 v -2.4 l -1.6 -0.1 l -0.7 1.1 l -0.3 10.9 l 2.6 4.7 l 4.5 4.4 l -0.2 1.3 l -2.4 -0.1 l -2.2 -3.3 h -2.3 l -2.9 -2.3 l -0.9 -2.4 l 1.3 -2 l 0.4 -1.9 l 1.4 -2.4 l -0.1 -5.6 l -3.3 -4.8 l -0.1 -0.6 l 1.1 -1.1 l -0.3 -3.8 l -4.4 -5.6 l 0.5 -3.2 L 646 472.9 L 646 472.9 z"/>
    <path id="tj" d="M 559.7 422.2 l 3.6 -4.4 h 1.3 l 0.5 1 l -1.6 1.2 v 1 l 1.1 0.8 l 5.2 0.3 l 1.7 -0.7 l 0.8 0.2 l 0.5 1.7 l 3.1 0.3 l 1.5 3.3 l -0.5 1 l -0.6 0.1 l -0.6 -1.2 l -1.3 -0.1 l -2.3 0.3 l -0.2 2.2 l -2.3 -0.2 l 0.1 -2.8 l -1.7 -1.7 l -2.6 2.1 l 0.1 1.4 l -2.3 0.8 h -1.3 l 0.1 -4.8 L 559.7 422.2 L 559.7 422.2 z"/>
    <path id="tm" d="M 528.3 418.6 l -0.5 2.3 h -3.6 v 3.1 l 3.9 2.5 l -1.2 3.5 v 1.6 l 1.6 0.3 l 2.1 -2.8 l 4.8 -1.1 l 10.2 3.9 l 0.1 2.8 l 5.7 0.5 l 6.4 -6.7 l -0.8 -2.1 l -4.3 -0.9 l -12 -7.8 l -0.5 -2.8 h -4.5 l -2 3.8 h -2 L 528.3 418.6 L 528.3 418.6 z"/>
    <path id="tn" d="M 425.5 435.6 l 4.8 -1.9 l 1.6 1 l 0.1 1.2 l -0.7 1 l 0.1 1.7 l 0.7 0.4 v 3.1 l -0.8 1.4 l 0.1 0.9 l 3.2 1.1 l -2.6 4 l -1 -0.1 l -0.2 3.2 l -1.1 0.2 l -1 -0.8 l 0.2 -3.3 l -3.1 -3.1 l -0.4 -2.7 l 1.5 -1.2 L 425.5 435.6 L 425.5 435.6 z"/>
    <path id="tr" d="M 472.8 421.9 l -2.3 -1.4 l -1.3 -1 l -2.1 0.9 l 0 0 l -1.5 3.7 l 2.2 -0.5 l 1.6 -1.2 l 3.4 0.9 l -1.9 1.9 L 465.7 425 l -1.9 2.1 v 1 l 1.2 1 v 1.1 l -0.5 1.3 l 0.5 1.1 l 1.6 -0.8 l 1.6 1.7 l -0.4 1.2 l -0.6 0.8 l 0.9 1 l 4.5 0.9 l 3.1 -1.3 v -1.9 l 1.5 0.3 l 3.6 2.1 l 3.9 -0.6 l 1.7 -1.6 l 1.1 0.4 v 1.8 h 1.5 l 1.3 -2.5 l 11.5 -1.2 l 5 -0.6 l -1.3 -1.7 l 0 -2.4 l 1 -1.2 l -3.7 -3 l 0.2 -2.6 h -2 l -3.4 -1.6 l 0 0 l -1.9 2 l -7.1 -0.2 l -4.3 -2.5 l -4.1 0.4 l -4.5 2.7 L 472.8 421.9 z"/>
    <path id="tt" d="M 259 502.6 l -0.9 0.8 l -1 0.2 v 1.2 l 1.8 1.7 l 0.8 -1.2 l 0.5 -1.4 l -0.2 -1.1 L 259 502.6 L 259 502.6 z"/>
    <path id="tw" d="M 695.7 453.8 l -3.1 2.3 l -0.2 4.5 l 2.6 3.1 l 0.7 -0.6 L 695.7 453.8 L 695.7 453.8 z"/>
    <path id="tz" d="M 492.2 560 l 13.8 -1.7 l -3.4 -6.6 l -0.2 -6.3 l 1.1 -3 l -14.4 -9 l -4.5 0.7 l -1.6 1.2 l -0.1 2.6 l -1 3.7 l -1.1 1.3 l -1.5 0.1 l 2.8 9.4 l 4.8 2.8 l 4.2 0.1 L 492.2 560 z"/>
    <path id="ua" d="M 460.7 388.8 l -2.5 1.4 l 0.6 2.7 l -2.3 4.9 l 0 2.2 l 1.1 0.7 l 7 0.3 l 2 -1.6 l 2.1 0.7 l 3 4 l -2.2 3.9 l 2.6 0.8 l 3.4 -3.9 l 2 0.4 l 1.8 1.3 l -1.6 2.1 l 2.2 3.4 h 2.3 l 1.2 -2.2 l 2.4 -0.5 l 0.1 -1.8 l -4.5 -0.7 l 0.1 -2 h 4.4 l 4.7 -3.8 l 2.1 -1.8 l 0.3 -5.8 l -9.3 -0.8 l -3.8 -5.4 l -2.6 -0.9 l -3.2 0.1 l -1.4 3.6 l -6.6 0.1 l -2.1 -1 L 460.7 388.8 L 460.7 388.8 z"/>
    <path id="ug" d="M 480.3 532.2 l 2.6 2.5 l 1.6 -1 l 4.4 -0.7 l 0.8 0.1 l 0.3 -1.7 l 2.5 -5.3 l -2.1 -4.4 l -6.8 0 l 0 1.8 l 0.9 0.9 l -0.1 1.8 L 480.3 532.2 L 480.3 532.2 z"/>
    <g id="us">
        <path class="mainland" d="M 143.6 376 l -0.9 3.5 l -3 -2 h -1.5 l -0.9 3.7 l -10.6 23.6 l 2.8 20.6 l 3.4 1.7 l 0.6 5.6 h 7.1 l 6.9 5.2 l 13.6 1.3 l 1.5 6.9 l 2.2 1.5 l 3 -3 l 2.4 1.1 l 2.2 10 l 3.7 2.4 l 3 -5.6 l 9.3 -6.7 l 6 2.8 l 5.2 0.4 l 0.2 -3.3 l 10.8 0.2 l 2.2 2.4 l 0.4 5.4 l -1.3 3 l 1.5 5.2 h 3.2 l 3.2 -5 l -1.3 -2.4 l -1.3 -5.2 l 1.9 -5.9 l 8.8 -7.6 l 6.7 -2 l -0.9 -6.3 l 9.3 -10 l 9.3 -1.5 l -1.5 -5.2 l 9 -5.2 v -6.9 l -0.9 -0.4 l -3.2 1.1 l -0.4 4.3 l -10.7 0.1 l -8.4 5.6 l -13.2 4.3 l -2.1 -2.6 l 6 -9.1 l -3 -2.8 l -2 -3.8 l -4.2 -3.4 l -4.5 -0.4 l -8.6 -5.9 L 143.6 376 L 143.6 376 z"/>
        <path d="M 74.8 285.2 l 3 5.6 l 1.9 -0.4 v -1.9 L 74.8 285.2 L 74.8 285.2 z"/>
        <path d="M 57.9 334.4 l -0.1 2.6 l 1.9 -0.4 v -1.2 L 57.9 334.4 L 57.9 334.4 z"/>
        <path d="M 55.1 335.6 l -3.7 1.9 l 0.6 2 l 1.4 -1.2 l 2.9 -1.3 L 55.1 335.6 L 55.1 335.6 z"/>
        <path d="M 39.5 338 l -2.6 -0.6 l -0.4 1.2 l 0.3 2.2 L 39.5 338 L 39.5 338 z"/>
        <path d="M 34.1 337.9 l -2.4 -1 l -0.9 1.6 l 1.6 1.6 L 34.1 337.9 L 34.1 337.9 z"/>
        <path d="M 95.5 277.9 l -7.3 1.7 l 1.5 8.2 l 7.9 2.2 l 0.4 1.7 l -11.7 3.7 l -6.6 11 l 2.3 11.6 l 3.8 2.6 l 3 -2.8 l 0.9 1.7 l -3.6 4.3 l -14.1 6.4 l -9 2.2 l -0.2 3.2 l 20.7 -6 l 8.5 -2.4 l 7.9 -9.7 l 8.7 -5.8 l -4.5 7.5 l 4.9 0.6 l 8.3 -3.7 l 1.5 6 l 5.8 1.3 l 6 5.8 l 0.4 4.3 l -0.9 1.1 l 1.1 4.1 h 1.5 l 0.2 -6.9 h 1.7 l 0.4 17 l 4.3 -3.7 l -3 -17.6 h -4.5 l -4.9 -6.2 l 24.1 -40.8 l -23.9 -18.7 l -26.7 5.2 l -1.1 8.2 l 5.8 3.4 l -2.1 5.6 L 95.5 277.9 L 95.5 277.9 z"/>
    </g>
    <path id="uy" d="M 274.6 612.5 l -1.8 1.9 l 0.7 10.2 l 5.6 1.6 l 7.1 -7.1 L 274.6 612.5 L 274.6 612.5 z"/>
    <path id="uz" d="M 558.6 428.5 l 2.7 0.1 v -4.6 l -2.5 -1.5 l 4.3 -5.4 h 1.7 l 1.7 2 l 4.5 -1.7 l -6.3 -2.1 l -0.2 -1.3 l -1.5 0.4 l -1.5 2.5 l -6.3 -0.2 l -4.6 -6.5 l -8.1 0.8 l -3.9 -3.8 l -5.4 -0.9 l -3.9 1.6 l 2.3 7.5 l 0 2.5 l 1.6 0 l 2 -3.8 l 5.4 0.1 l 0.8 2.9 l 11.5 7.6 l 4.4 1 L 558.6 428.5 L 558.6 428.5 z"/>
    <g id="vc">
        <path d="M 258.8 496.6 l -1.1 0.8 l 0.8 1.5 l 1.4 -0.8 L 258.8 496.6 L 258.8 496.6 z"/>
        <path d="M 257.5 499.6 l -1 1 l 0.4 0.6 h 1.2 l 0.4 -1 L 257.5 499.6 L 257.5 499.6 z"/>
    </g>
    <path id="ve" d="M 231.5 503.6 l 0.4 2.2 l 2.8 0.9 l 0.6 -4.1 l 3 -3.1 l 3 3.5 l 6.8 1.9 l 5.8 -1.2 l 3.9 4.8 l 3 1.9 l -3.3 5 l 1.1 3.8 l -1.9 2.3 l -1.9 1.6 l -4.2 -2.1 l -1 1 v 3 l 3.1 1.5 l -2.2 2.4 l -2.2 2.4 l -3 -0.2 l -3 -3.3 l -0.6 -12.3 l -10.2 -3.5 l -1.9 -5.4 L 231.5 503.6 L 231.5 503.6 z"/>
    <path id="vn" d="M 659 502.3 l 1 1.6 l 0.2 1.9 l 2.7 0.3 l 3.3 -4.4 l 3.1 -0.9 l 1.6 -4.5 l -0.8 -7.2 l -3.2 -4.4 l -3.4 -2.7 l -4.3 -7.3 l 3.1 -5.1 l -4.4 -5 l -3.5 -0.2 l -3.2 1.7 l 0.9 4.1 l 4.2 0.7 l 1.1 3.1 l -1.5 1 l 0.1 0.8 l 9.9 9.7 l 0.4 2.8 l -0.6 9 L 659 502.3 L 659 502.3 z"/>
    <g id="vu">
        <path d="M 811 582.5 l -1.1 1.4 l 0.5 1.6 l 0.5 0.4 l 1 -1.3 L 811 582.5 L 811 582.5 z"/>
        <path d="M 811.5 586.9 l 0.1 1.2 l 1.2 0.4 l 0.8 -0.4 l -0.8 -1.3 L 811.5 586.9 L 811.5 586.9 z"/>
        <path d="M 813.2 597.3 l -0.5 0.8 l 0.8 0.9 l 1.3 -0.4 L 813.2 597.3 L 813.2 597.3 z"/>
    </g>
    <g id="ye">
        <path class="mainland" d="M 509.4 489.1 l 1.2 3.7 v 3.6 l 3 2.7 l 21.1 -8.6 l 0.2 -2.4 l -3.4 -6.1 l -8.5 2.7 l -4.9 4.8 l -5.6 -3.3 L 509.4 489.1 L 509.4 489.1 z"/>
        <path d="M 533.3 498.1 l 1.8 2.1 l 2.5 -1.5 l 0.9 -0.3 l -1.1 -1.1 l -2.2 0.6 L 533.3 498.1 L 533.3 498.1 z"/>
    </g>
    <path id="za" d="M 476.7 588 l -6.8 6.3 l -1.6 3.9 l -5.4 -0.7 l -4.5 4 l -3 -0.3 l 0.2 -5.5 l -1.1 -0.4 l -0.7 11.3 l -5.3 -0.1 l -1.6 -1.9 l -2.3 0 l 2.1 6.1 l 3.8 3.6 l -2.7 3.2 l 1.8 4 l 4.1 1.6 l 3.3 -2.8 l 9.3 0.1 l 0.7 -0.8 l 4.1 -0.7 l 14 -13.9 l -0.1 -4.4 l -1.5 1.9 h -2.2 l -2.7 -2.3 l 1.4 -3.4 l 2.4 -0.5 l -0.2 -7.1 L 476.7 588 L 476.7 588 z M 473.5 604 l 1.3 -0.1 l 2.1 2.3 l -0.1 2.7 l -2.5 1.3 l -0.2 0.9 l -3.8 0 l -1.2 -2.9 l 1.1 -2.1 L 473.5 604 L 473.5 604 z"/>
    <path id="zm" d="M 459.8 571.7 l 2.7 3.8 l 4.2 0.3 l 1.5 0.8 l 4.4 0.1 l 3.8 -5.4 l 10.7 -4.8 l 0.9 -4.2 l -1.2 -6 l -5.6 -3.2 l -3.7 0.3 l -1.9 4.1 l 0.1 1.9 l 4.4 2.1 l 0.3 4.6 l -3.8 0.2 l -0.9 -1.6 l -10.5 -4.5 l -0.3 3.4 l -5 0.2 L 459.8 571.7 L 459.8 571.7 z"/>
    <path id="zw" d="M 468.5 578.2 l 7.8 8.8 l 5.9 1.5 l 4 -6.2 l -0.3 -8.3 l -6.5 -3.3 l -2.4 1.1 l -3.6 5.5 l -5 -0.1 L 468.5 578.2 L 468.5 578.2 z"/>
</g>
</svg>
